<svg xmlns="http://www.w3.org/2000/svg" width="19" height="15" viewBox="0 0 19 15"><g><g><path fill="#ffffff" d="M18 12.781c0 .674-.538 1.222-1.197 1.222H2.207c-.66 0-1.196-.548-1.196-1.222L1.006 2.253c0-.673.536-1.221 1.195-1.221h14.592c.66 0 1.196.548 1.196 1.221l.005 10.528z"/></g><g><path fill="#005695" d="M11.874 7.38l4.45-3.99a.51.51 0 0 0 .037-.719.51.51 0 0 0-.719-.037L9.507 8.14 8.31 7.07a.755.755 0 0 0-.09-.083L3.348 2.63a.507.507 0 0 0-.72.041c-.188.211-.169.531.042.72l4.502 4.023-4.483 4.198a.51.51 0 0 0 .696.745l4.551-4.258 1.235 1.103a.508.508 0 0 0 .677-.003l1.269-1.137 4.524 4.299a.508.508 0 0 0 .7-.738z"/></g></g></svg>