<svg xmlns="http://www.w3.org/2000/svg" width="295" height="202" viewBox="0 0 295 202"><g><g><g><g><path fill="#9ecfef" d="M284.312 112.105h-46.095c-.647 0-1.294-.486-1.294-1.294 0-.809.485-1.294 1.294-1.294h46.095c.647 0 1.294.485 1.294 1.294 0 .808-.647 1.294-1.294 1.294z"/></g><g><path fill="#9ecfef" d="M115.093 13.01h-6.955c-.647 0-1.294-.485-1.294-1.294 0-.647.485-1.294 1.294-1.294h6.955c.647 0 1.294.485 1.294 1.294-.162.647-.647 1.294-1.294 1.294z"/></g><g><path fill="#9ecfef" d="M111.535 16.406c-.647 0-1.294-.485-1.294-1.294V8.158c0-.647.485-1.294 1.294-1.294.646 0 1.293.485 1.293 1.294v6.954c0 .81-.485 1.294-1.293 1.294z"/></g><g><path fill="#9ecfef" d="M286.635 133.037h-6.955c-.646 0-1.293-.485-1.293-1.293 0-.647.485-1.294 1.293-1.294h6.955c.647 0 1.294.485 1.294 1.294 0 .647-.647 1.293-1.294 1.293z"/></g><g><path fill="#9ecfef" d="M283.239 136.434c-.647 0-1.294-.485-1.294-1.294v-6.955c0-.647.485-1.294 1.294-1.294.647 0 1.294.486 1.294 1.294v6.955c-.162.809-.647 1.294-1.294 1.294z"/></g><g><path fill="#9ecfef" d="M68.712 144.83c-.323 0-.647-.161-.809-.323l-4.852-4.852a1.27 1.27 0 0 1 0-1.78 1.27 1.27 0 0 1 1.78 0l4.851 4.853a1.27 1.27 0 0 1 0 1.779c-.323.162-.646.323-.97.323z"/></g><g><path fill="#9ecfef" d="M63.86 144.83c-.324 0-.647-.161-.809-.323a1.27 1.27 0 0 1 0-1.78l4.852-4.851a1.27 1.27 0 0 1 1.78 0 1.27 1.27 0 0 1 0 1.779l-4.853 4.852c-.485.162-.647.323-.97.323z"/></g><g><path fill="#9ecfef" d="M43.708 64.947c-.323 0-.647-.162-.809-.324a1.27 1.27 0 0 1 0-1.779l4.852-4.852a1.27 1.27 0 0 1 1.78 0 1.27 1.27 0 0 1 0 1.78l-4.853 4.851c-.323.162-.646.324-.97.324z"/></g><g><path fill="#9ecfef" d="M48.56 64.947c-.323 0-.647-.162-.809-.324L42.9 59.771a1.27 1.27 0 0 1 0-1.779 1.27 1.27 0 0 1 1.78 0l4.852 4.852a1.27 1.27 0 0 1 0 1.78c-.324.161-.647.323-.97.323z"/></g><g><path fill="#9ecfef" d="M244.907 26.292c-.323 0-.647-.162-.808-.324a1.27 1.27 0 0 1 0-1.779l4.852-4.852a1.27 1.27 0 0 1 1.779 0 1.27 1.27 0 0 1 0 1.78l-4.852 4.851c-.324.162-.647.324-.97.324z"/></g><g><path fill="#9ecfef" d="M249.76 26.292c-.324 0-.648-.162-.81-.324l-4.851-4.852a1.27 1.27 0 0 1 0-1.779 1.27 1.27 0 0 1 1.779 0l4.852 4.852a1.27 1.27 0 0 1 0 1.78c-.324.161-.647.323-.97.323z"/></g><g><path fill="#9ecfef" d="M266.418 72.387c-.323 0-.647-.162-.809-.324a1.27 1.27 0 0 1 0-1.779l4.853-4.852a1.27 1.27 0 0 1 1.779 0 1.27 1.27 0 0 1 0 1.779l-4.852 4.852c-.324.162-.647.324-.97.324z"/></g><g><path fill="#9ecfef" d="M271.432 72.387c-.324 0-.647-.162-.809-.324l-4.852-4.852a1.27 1.27 0 0 1 0-1.78 1.27 1.27 0 0 1 1.78.001l4.851 4.852a1.27 1.27 0 0 1 0 1.78c-.485.16-.647.323-.97.323z"/></g><g><path fill="#9ecfef" d="M162.836 201.738c-.323 0-.647-.162-.808-.324a1.27 1.27 0 0 1 0-1.779l4.852-4.852a1.27 1.27 0 0 1 1.779 0 1.27 1.27 0 0 1 0 1.78l-4.852 4.851c-.486.324-.647.324-.97.324z"/></g><g><path fill="#9ecfef" d="M167.688 201.738c-.323 0-.647-.162-.808-.324l-4.852-4.852a1.27 1.27 0 0 1 0-1.779 1.27 1.27 0 0 1 1.779 0l4.852 4.852a1.27 1.27 0 0 1 0 1.78c-.324.323-.647.323-.97.323z"/></g><g><path fill="#9ecfef" d="M43.093 109.52H1.688c-.647 0-1.132-.485-1.132-1.293 0-.647.485-1.294 1.294-1.294h41.243c.647 0 1.294.485 1.294 1.294-.162.808-.647 1.294-1.294 1.294z"/></g><g><path fill="#9ecfef" d="M70.495 41.01H19.387c-.647 0-1.294-.485-1.294-1.132 0-.647.485-1.294 1.294-1.294h51.27c.647 0 1.294.485 1.294 1.294-.162.485-.809 1.132-1.456 1.132z"/></g><g><path fill="#9ecfef" d="M293.702 52.89h-49.976c-.647 0-1.294-.486-1.294-1.294 0-.647.485-1.294 1.294-1.294h49.976c.647 0 1.294.485 1.294 1.294 0 .808-.485 1.294-1.294 1.294z"/></g><g><path fill="#9ecfef" d="M212.728 39.01h-7.764c-.646 0-1.293-.485-1.293-1.132 0-.647.485-1.294 1.293-1.294h7.764c.647 0 1.294.485 1.294 1.294 0 .485-.486 1.132-1.294 1.132z"/></g><g><path fill="#9ecfef" d="M60.525 6.78L63.598 5l3.073 1.78v3.557l-3.073 1.78-3.073-1.78z"/></g><g><path fill="#9ecfef" d="M52.19 194.844l3.072-1.779 3.073 1.78v3.557l-3.073 1.78-3.073-1.78z"/></g><g><path fill="#9ecfef" d="M238.927 169.984l3.073-1.779 3.073 1.78v3.557l-3.073 1.78-3.073-1.78z"/></g><g><path fill="#9ecfef" d="M185.52 3.057l4.206-2.426 4.043 2.426v4.69l-4.043 2.427-4.205-2.426z"/></g></g></g><g><g><path fill="#9ecfef" d="M221.366 144.615c0 7.315-5.93 13.246-13.245 13.246-7.315 0-13.245-5.931-13.245-13.246s5.93-13.245 13.245-13.245c7.316 0 13.245 5.93 13.245 13.245z"/></g><g><path fill="#9ecfef" d="M197.525 157.86h21.192a7.947 7.947 0 0 1 7.947 7.948v18.543h-37.086v-18.543a7.948 7.948 0 0 1 7.947-7.947z"/></g><g><path fill="#d2e9f7" d="M188.277 88.335c-21.677-.054.981-14-9.03-33.227-10.01-19.228-49.23-25.49-74.438-17.965-21.58 11.07-34.048 34.348-31.305 58.447 2.743 24.098 20.125 43.978 43.64 49.914 23.516 5.937 48.251-3.311 62.103-23.22 8.12-14.832 18.337-33.918 9.03-33.95z"/></g><g><path fill="#9ecfef" d="M131.299 30.707v58.279h58.279c0-32.187-26.092-58.28-58.279-58.28z"/></g><g><path fill="#9ecfef" d="M221.366 38.654a7.948 7.948 0 1 1-15.893 0 7.948 7.948 0 0 1 15.893 0z"/></g><g/><g><path fill="#9ecfef" d="M118.054 102.23a5.297 5.297 0 1 1-10.596 0 5.298 5.298 0 0 1 10.596 0z"/></g><g><path fill="#9ecfef" d="M96.861 81.039a5.298 5.298 0 1 1-10.596 0 5.298 5.298 0 0 1 10.596 0z"/></g><g><path fill="#9ecfef" d="M73.02 155.212h15.894v29.139H73.02z"/></g><g><path fill="#9ecfef" d="M126.001 173.755h15.894v10.596h-15.894z"/></g><g><path fill="#d2e9f7" d="M99.51 165.808h13.246v18.543H99.51z"/></g><g><g><path fill="#005695" d="M224.015 181.702h-31.788v-15.894a5.298 5.298 0 0 1 5.298-5.298h21.192a5.297 5.297 0 0 1 5.298 5.298zm-15.894-47.683c5.853 0 10.596 4.743 10.596 10.596 0 5.852-4.743 10.597-10.596 10.597-5.852 0-10.596-4.745-10.596-10.597 0-5.853 4.744-10.596 10.596-10.596zm11.71 21.193c5.817-6.337 5.537-16.152-.631-22.147-6.169-5.996-15.988-5.996-22.156 0-6.169 5.995-6.448 15.81-.632 22.147a10.597 10.597 0 0 0-9.483 10.596v18.543a2.65 2.65 0 0 0 2.649 2.649h37.086a2.648 2.648 0 0 0 2.65-2.65v-18.542a10.595 10.595 0 0 0-9.483-10.596z"/></g><g><path fill="#005695" d="M213.42 33.356a5.298 5.298 0 1 1 0 10.596 5.298 5.298 0 0 1 0-10.596zm7.946 26.49h-15.894V51.9a2.65 2.65 0 0 1 2.65-2.649h10.595a2.648 2.648 0 0 1 2.65 2.65z"/></g><g><path fill="#005695" d="M131.299 144.615a55.394 55.394 0 0 1-21.192-4.212v-16.98a2.648 2.648 0 1 0-5.298 0v14.464c-21.87-11.927-33.144-36.94-27.598-61.224 5.545-24.287 26.56-41.924 51.439-43.175v55.498a2.65 2.65 0 0 0 2.65 2.649h55.629c-1.115 22.92-16.19 42.805-37.96 50.066l-7.285-16.688a2.657 2.657 0 0 0-4.875 2.118l7.021 15.895a54.29 54.29 0 0 1-12.531 1.59zm2.65-111.127h1.642l2.464.239 2.967.45 2.357.45c.98.238 1.934.476 2.888.769.953.29 1.51.397 2.25.635.743.239 1.909.69 2.836 1.059l2.119.821c.954.425 1.855.875 2.782 1.352.926.476 1.297.61 1.907.953.609.344 1.88 1.113 2.649 1.696.768.582 1.14.688 1.668 1.06 1.008.689 1.961 1.43 2.914 2.171.425.318.849.61 1.246.955.397.344.9.821 1.378 1.244l-20.107 18.543a2.649 2.649 0 0 0 1.933 4.557 2.784 2.784 0 0 0 1.802-.69l20.292-18.542c.741.795 1.484 1.563 2.172 2.385.344.397.636.82.953 1.218.743.98 1.484 1.934 2.173 2.94.371.53.715 1.113 1.06 1.669.344.556 1.165 1.828 1.695 2.649s.635 1.271.954 1.908c.318.635.927 1.827 1.35 2.649.424.821.557 1.403.821 2.119.265.715.743 1.854 1.061 2.834.317.98.45 1.483.635 2.251.185.769.53 1.908.768 2.889.238.979.319 1.562.45 2.356.134.796.319 1.987.45 2.968.134.98.16 1.642.24 2.464l.21 1.827h-52.98zm45.033 132.32H161.26a2.648 2.648 0 0 1-2.437-1.59l-7.708-17.643a60.927 60.927 0 0 0 24.768-99.046l6.013-5.538a2.649 2.649 0 0 1 1.802-.688h11.178a2.648 2.648 0 1 0 0-5.298h-11.178a7.942 7.942 0 0 0-5.298 2.093l-6.279 5.695a60.928 60.928 0 1 0-101.84 43.886 60.928 60.928 0 0 0 34.527 56.168v11.365a2.65 2.65 0 0 0 5.299 0v-9.113a60.55 60.55 0 0 0 21.192 3.814 61.23 61.23 0 0 0 14.703-1.801l7.947 18.225a7.947 7.947 0 0 0 7.31 4.769h17.722a2.648 2.648 0 1 0 0-5.298z"/></g><g><path fill="#005695" d="M116.173 73.86L87.033 103a2.65 2.65 0 0 0 0 3.76 2.649 2.649 0 0 0 3.763 0l29.14-29.139a2.66 2.66 0 1 0-3.763-3.761z"/></g><g><path fill="#005695" d="M112.756 104.88a2.65 2.65 0 1 1 0-5.298 2.65 2.65 0 0 1 0 5.298zm0-10.596a7.948 7.948 0 1 0 0 15.895 7.948 7.948 0 0 0 0-15.895z"/></g><g><path fill="#005695" d="M88.914 81.039a2.65 2.65 0 1 1 5.299 0 2.65 2.65 0 0 1-5.299 0zm10.596 0a7.948 7.948 0 1 0-15.893 0 7.948 7.948 0 0 0 15.893 0z"/></g><g><path fill="#005695" d="M139.246 107.529h26.49a2.648 2.648 0 1 0 0-5.298h-26.49a2.65 2.65 0 0 0 0 5.298z"/></g><g><path fill="#005695" d="M165.737 112.827H152.49a2.65 2.65 0 0 0 0 5.298h13.246a2.648 2.648 0 1 0 0-5.298z"/></g><g><path fill="#005695" d="M86.265 181.702H75.67v-23.841h10.596zm2.65-29.14H73.02a2.65 2.65 0 0 0-2.649 2.65v29.139a2.65 2.65 0 0 0 2.65 2.649h15.893a2.648 2.648 0 0 0 2.65-2.649v-29.14a2.648 2.648 0 0 0-2.65-2.648z"/></g><g><path fill="#005695" d="M112.756 181.702H102.16v-13.245h10.596zm2.649-18.543H99.51a2.65 2.65 0 0 0-2.65 2.649v18.543a2.65 2.65 0 0 0 2.65 2.649h15.894a2.648 2.648 0 0 0 2.649-2.65v-18.542a2.648 2.648 0 0 0-2.65-2.65z"/></g><g><path fill="#005695" d="M139.246 181.702H128.65v-5.298h10.596zm2.65-10.596H126a2.65 2.65 0 0 0-2.65 2.649v10.596a2.65 2.65 0 0 0 2.65 2.649h15.894a2.648 2.648 0 0 0 2.65-2.649v-10.596a2.648 2.648 0 0 0-2.65-2.65z"/></g><g><path fill="#005695" d="M120.703 46.601h-10.596a2.65 2.65 0 0 0 0 5.298h10.596a2.648 2.648 0 1 0 0-5.298z"/></g><g><path fill="#005695" d="M120.703 57.197H99.51a2.65 2.65 0 0 0 0 5.298h21.192a2.648 2.648 0 1 0 0-5.298z"/></g></g></g></g></svg>