<svg xmlns="http://www.w3.org/2000/svg" width="27" height="28" viewBox="0 0 27 28"><g><g><g><path fill="#005695" d="M1.579 4.212a2.384 2.384 0 0 1 2.381-2.38h19.156a2.384 2.384 0 0 1 2.38 2.38v19.156a2.384 2.384 0 0 1-2.38 2.381H3.96a2.384 2.384 0 0 1-2.381-2.381zM3.96 27.336h19.156a3.973 3.973 0 0 0 3.968-3.968V4.212A3.973 3.973 0 0 0 23.116.244H3.96A3.973 3.973 0 0 0-.009 4.212v19.156a3.973 3.973 0 0 0 3.97 3.968z"/></g><g><path fill="#005695" d="M13.538 8.234a5.562 5.562 0 0 1 5.556 5.556 5.562 5.562 0 0 1-5.556 5.556 5.562 5.562 0 0 1-5.556-5.556 5.562 5.562 0 0 1 5.556-5.556zm0 12.7c3.939 0 7.143-3.205 7.143-7.144s-3.204-7.144-7.143-7.144c-3.94 0-7.144 3.205-7.144 7.144s3.205 7.144 7.144 7.144z"/></g><g><path fill="#005695" d="M21.475 5.059a.795.795 0 0 1 0 1.587.795.795 0 0 1 0-1.587zm0 3.175a2.384 2.384 0 0 0 2.381-2.381 2.384 2.384 0 0 0-2.38-2.381 2.384 2.384 0 0 0-2.382 2.38 2.384 2.384 0 0 0 2.381 2.382z"/></g></g></g></svg>