<svg xmlns="http://www.w3.org/2000/svg" width="17" height="17" viewBox="0 0 17 17"><g><g><path fill="#313131" d="M15.595 14.11c-.004 0-.004.003 0 0-.148.159-.3.303-.464.463a9.995 9.995 0 0 0-.734.76c-.384.41-.837.604-1.43.604-.058 0-.119 0-.176-.004-1.13-.072-2.18-.513-2.967-.89a16.897 16.897 0 0 1-5.616-4.39C2.911 9.09 2.043 7.646 1.47 6.096c-.354-.946-.483-1.683-.426-2.378.038-.445.21-.813.525-1.128l1.297-1.296c.187-.175.385-.27.579-.27.24 0 .433.145.555.266l.011.012c.232.216.453.44.685.68l.362.368 1.038 1.037c.404.403.404.775 0 1.178-.11.11-.217.22-.327.327-.32.327-.624.63-.955.927-.007.007-.015.011-.019.019-.327.326-.266.646-.198.862l.012.034c.27.654.65 1.27 1.229 2.002l.003.004c1.05 1.292 2.158 2.299 3.379 3.07.156.099.316.178.468.254.137.069.266.133.376.202.016.007.03.019.046.026.13.065.251.095.377.095a.814.814 0 0 0 .578-.262l1.301-1.3c.13-.128.335-.284.575-.284.236 0 .43.148.548.277l.007.008 2.096 2.093c.392.388.392.787.004 1.19zm-1.362-4.001c-.369-.384-.814-.589-1.286-.589-.468 0-.917.201-1.3.585l-1.203 1.197c-.099-.053-.198-.103-.293-.152a4.837 4.837 0 0 1-.377-.202c-1.126-.714-2.15-1.645-3.13-2.849-.476-.6-.796-1.105-1.028-1.618.312-.285.601-.581.883-.866.106-.107.213-.217.32-.323.798-.798.798-1.831 0-2.63l-1.04-1.036c-.117-.118-.24-.24-.353-.361A17.945 17.945 0 0 0 4.71.558C4.341.193 3.9 0 3.436 0c-.464 0-.913.193-1.294.558l-.007.008L.84 1.869a2.778 2.778 0 0 0-.825 1.766c-.092 1.11.236 2.143.487 2.82.616 1.66 1.537 3.198 2.91 4.847a17.9 17.9 0 0 0 5.962 4.661c.875.414 2.043.904 3.348.988.08.004.163.007.24.007.878 0 1.616-.315 2.195-.942.004-.007.011-.011.015-.019.198-.239.426-.456.666-.687.163-.156.33-.32.494-.49.377-.392.575-.848.575-1.315 0-.47-.202-.923-.586-1.303z"/></g></g></svg>