<svg xmlns="http://www.w3.org/2000/svg" width="436" height="211" viewBox="0 0 436 211"><g><g><g><path fill="#9ecfef" d="M198.933 166.205H45.277c-2.516 0-4.822-2.026-4.822-4.661v-80.67c0-4.663 3.983-8.514 8.805-8.514h145.48c4.822 0 8.805 3.851 8.805 8.513v80.67c.21 2.636-1.887 4.662-4.612 4.662z"/></g><g><path fill="#005695" d="M41.713 163.57h-3.144V78.442c0-4.256 3.563-7.702 7.965-7.702H66.66v3.04H46.534c-2.725 0-4.821 2.027-4.821 4.662z"/></g><g><path fill="#fff" d="M49.26 155.666V81.48h145.69v74.185z"/></g><g><path fill="#d2e9f7" d="M97.474 208.568v-28.174h49.262v28.174z"/></g><g><path fill="#9ecfef" d="M97.474 194.38v-13.986h49.262v13.985z"/></g><g><path fill="#005695" d="M99.15 182.015h46.119v25.134H99.15zm49.053-3.04H95.797v31.214h52.406z"/></g><g><path fill="#fff" d="M203.755 162.76h-163.3v6.689c0 8.107 6.708 14.593 15.093 14.593h133.113c8.386 0 15.094-6.486 15.094-14.593z"/></g><g><path fill="#005695" d="M137.303 185.664H51.146c-6.708 0-12.368-5.27-12.368-11.959V161.34h98.734v3.04h-95.38v9.324c0 4.864 4.193 8.918 9.224 8.918h86.156v3.04z"/></g><g><path fill="#0686d8" d="M88.04 210.595v-3.04h68.968v3.04z"/></g><g><path fill="#005695" d="M132.691 119.79c0 4.256-3.564 7.702-7.966 7.702s-7.966-3.446-7.966-7.702c0-4.257 3.564-7.703 7.966-7.703 4.612 0 8.176 3.446 7.966 7.703zm3.144 0c0-5.878-5.03-10.743-11.11-10.743-6.079 0-11.11 4.865-11.11 10.743s5.031 10.742 11.11 10.742c6.29 0 11.32-4.662 11.11-10.742zm-9.433 29.39c2.725 0 4.612-2.027 4.822-4.054v-3.446c2.096-.608 4.192-1.419 6.079-2.635l-1.677-2.635c-1.887 1.014-3.983 2.027-6.289 2.432l-1.258.203v5.675c0 .811-.629 1.42-1.467 1.42h-3.564c-.419 0-.838-.203-1.048-.406a1.522 1.522 0 0 1-.42-1.014v-5.675l-1.257-.203c-2.306-.608-4.402-1.418-6.289-2.634l-1.048-.609-4.192 4.054a1.63 1.63 0 0 1-1.049.406 1.63 1.63 0 0 1-1.048-.406l-2.515-2.432a1.522 1.522 0 0 1-.42-1.014c0-.405.21-.81.42-1.013l4.192-4.054-.629-1.013c-1.048-1.824-2.096-3.851-2.515-6.08l-.21-1.217h-5.87c-.838 0-1.467-.608-1.467-1.419v-3.446c0-.405.21-.81.42-1.013.21-.203.629-.406 1.048-.406h5.87l.209-1.216c.629-2.23 1.467-4.256 2.725-6.08l.629-1.014-4.193-4.054a1.522 1.522 0 0 1-.419-1.013c0-.405.21-.81.42-1.014l2.515-2.432c.629-.608 1.467-.608 2.096 0l4.193 4.054 1.048-.608a17.357 17.357 0 0 1 6.08-2.432l1.257-.203v-5.675c0-.811.629-1.42 1.467-1.42h3.564c.838 0 1.467.609 1.467 1.42v4.459h3.145v-4.46c0-2.432-2.097-4.459-4.612-4.459h-3.983c-2.516 0-4.612 2.027-4.612 4.46v3.445c-1.677.406-3.354 1.014-4.821 1.825l-2.516-2.433c-1.048-1.013-2.096-1.419-3.354-1.419-1.048 0-2.306.406-3.144 1.217l-2.516 2.432c-.838.81-1.257 1.824-1.257 3.04s.419 2.433 1.257 3.243l2.516 2.433c-.839 1.418-1.677 3.04-2.096 4.661h-3.354c-1.258 0-2.516.406-3.354 1.217-.839 1.013-1.258 2.026-1.258 3.243v3.445c0 2.433 2.096 4.46 4.612 4.46h3.354c.628 1.824 1.257 3.445 2.096 4.864l-2.516 2.432c-.838.811-1.257 1.825-1.257 3.04 0 1.217.419 2.433 1.257 3.244l2.516 2.432c1.048 1.014 2.096 1.419 3.354 1.419s2.515-.405 3.354-1.216l2.515-2.433c1.677.811 3.354 1.622 5.031 2.027v3.243c0 1.217.42 2.433 1.258 3.243.839.811 1.887 1.217 3.145 1.217h3.563z"/></g><g><path fill="#d2e9f7" d="M83.848 61.82h.42c1.886-6.486 8.175-11.148 15.512-11.148 3.144 0 6.079 1.014 8.594 2.433 1.677-10.135 10.691-18.04 21.802-18.04 9.852 0 18.237 6.284 20.962 15 1.258-.406 2.516-.609 3.983-.609 7.547 0 13.836 5.27 14.884 12.364h2.515c6.289 0 11.32 4.865 11.32 10.946v.81c0 6.081-5.031 10.946-11.32 10.946H83.848c-6.289 0-11.32-4.865-11.32-10.946v-.81c0-6.081 5.24-10.946 11.32-10.946z"/></g><g/><g><path fill="#005695" d="M172.73 85.94V82.9c5.45 0 9.643-4.256 9.643-9.324v-.81c0-5.27-4.403-9.324-9.643-9.324h-3.774l-.21-1.216c-1.257-7.5-8.803-12.77-16.979-10.54l-1.467.405-.42-1.418c-.419-1.217-1.048-2.635-1.677-3.852-.628-1.013-1.467-2.23-2.305-3.04-3.983-4.46-9.643-7.094-15.722-7.094-10.063 0-18.657 7.094-20.125 16.823l-.419 2.23-2.096-1.216c-2.306-1.42-5.031-2.23-7.756-2.23-6.499 0-12.159 4.256-14.045 10.134l-.42 1.014h-1.677c-5.45 0-9.642 4.256-9.642 9.324v.81c0 5.27 4.402 9.324 9.642 9.324h59.744v3.04H83.848c-7.127 0-12.787-5.675-12.787-12.364v-.81c0-6.689 5.45-12.162 12.158-12.364 2.516-6.69 9.224-11.148 16.56-11.148 2.726 0 5.241.608 7.547 1.621 2.516-10.134 11.949-17.229 22.85-17.229 6.917 0 13.625 3.04 18.027 8.108 1.049 1.014 1.887 2.23 2.516 3.648.629 1.014 1.048 2.027 1.467 3.04 1.048-.202 1.887-.202 2.935-.202 7.756 0 14.464 5.067 16.141 12.364h1.258c7.127 0 12.787 5.675 12.787 12.364v.811c.21 6.689-5.66 12.161-12.577 12.161z"/></g><g><path fill="#fff" d="M363.7 209.378V64.253c0-4.257-3.564-7.703-7.966-7.703H239.182c-4.403 0-7.966 3.446-7.966 7.703v145.125z"/></g><g><path fill="#9ecfef" d="M231.425 76.414V63.24c0-3.445 2.935-6.486 6.708-6.486h119.068c3.564 0 6.709 2.838 6.709 6.486v13.378H231.425z"/></g><g><path fill="#005695" d="M365.167 209.378h-3.144V63.24c0-2.635-2.306-4.864-5.031-4.864H240.649v-3.243h116.343c4.612 0 8.175 3.648 8.175 7.904z"/></g><g><path fill="#005695" d="M231.425 78.44V75.4H363.7v3.04z"/></g><g><path fill="#d2e9f7" d="M246.518 69.32v-3.04h5.241v3.04z"/></g><g><path fill="#d2e9f7" d="M258.887 69.32v-3.04h5.24v3.04z"/></g><g><path fill="#d2e9f7" d="M271.045 69.32v-3.04h5.24v3.04z"/></g><g><path fill="#d2e9f7" d="M247.776 116.952V86.954h99.363v29.998z"/></g><g><path fill="#d2e9f7" d="M283.622 145.937v-19.661h25.156v19.66z"/></g><g><path fill="#d2e9f7" d="M321.984 145.937v-19.661h25.155v19.66z"/></g><g><path fill="#d2e9f7" d="M324.919 40.538h-9.014c-.839 0-1.677-.608-1.677-1.621 0-.811.629-1.622 1.677-1.622h9.014c.838 0 1.677.608 1.677 1.622-.21 1.013-.839 1.621-1.677 1.621z"/></g><g><path fill="#d2e9f7" d="M320.517 44.794c-.839 0-1.677-.608-1.677-1.621v-8.716c0-.81.629-1.621 1.677-1.621.838 0 1.677.608 1.677 1.621v8.716c-.21 1.013-.839 1.621-1.677 1.621z"/></g><g><path fill="#d2e9f7" d="M10.688 87.157H1.674c-.838 0-1.677-.608-1.677-1.622 0-1.013.63-1.621 1.677-1.621h9.014c.839 0 1.677.608 1.677 1.621 0 1.014-.838 1.622-1.677 1.622z"/></g><g><path fill="#d2e9f7" d="M6.076 91.413c-.838 0-1.677-.608-1.677-1.621v-8.716c0-.81.63-1.622 1.677-1.622.839 0 1.677.609 1.677 1.622v8.716c0 1.013-.838 1.621-1.677 1.621z"/></g><g><path fill="#d2e9f7" d="M172.1 20.27c-.418 0-.838-.204-1.047-.406a1.553 1.553 0 0 1 0-2.23l6.289-6.08a1.685 1.685 0 0 1 2.306 0 1.553 1.553 0 0 1 0 2.229l-6.29 6.08c-.419.203-.838.406-1.257.406z"/></g><g><path fill="#d2e9f7" d="M178.39 20.27a1.63 1.63 0 0 1-1.048-.406l-6.29-6.081a1.553 1.553 0 0 1 0-2.23 1.685 1.685 0 0 1 2.307 0l6.289 6.081a1.553 1.553 0 0 1 0 2.23c-.42.202-.839.405-1.258.405z"/></g><g><path fill="#d2e9f7" d="M427.636 126.884c-.42 0-.838-.203-1.048-.406a1.553 1.553 0 0 1 0-2.23l6.289-6.08a1.686 1.686 0 0 1 2.306 0 1.553 1.553 0 0 1 0 2.23l-6.29 6.08c-.418.203-.838.406-1.257.406z"/></g><g><path fill="#d2e9f7" d="M433.925 126.884c-.42 0-.839-.203-1.048-.406l-6.29-6.08a1.553 1.553 0 0 1 0-2.23 1.686 1.686 0 0 1 2.307 0l6.289 6.08a1.553 1.553 0 0 1 0 2.23c-.42.203-.839.406-1.258.406z"/></g><g><path fill="#d2e9f7" d="M263.079 40.538v-3.04h36.475v3.04z"/></g><g><path fill="#d2e9f7" d="M377.326 123.64v-3.04H413.8v3.04z"/></g><g><path fill="#d2e9f7" d="M184.05 17.229v-3.04h80.496v3.04z"/></g><g><path fill="#d2e9f7" d="M10.688 63.037v-3.04h53.455v3.04z"/></g><g><path fill="#d2e9f7" d="M302.698 40.538v-3.04h7.547v3.04z"/></g><g><path fill="#d2e9f7" d="M377.116 165.192c0-1.903 1.595-3.446 3.564-3.446 1.968 0 3.563 1.543 3.563 3.446 0 1.903-1.595 3.446-3.563 3.446-1.969 0-3.564-1.543-3.564-3.446z"/></g><g><path fill="#d2e9f7" d="M288.234 3.446c0-1.903 1.596-3.446 3.564-3.446s3.564 1.543 3.564 3.446c0 1.903-1.596 3.445-3.564 3.445s-3.564-1.542-3.564-3.445z"/></g><g opacity=".6"><path fill="#d2e9f7" d="M64.982 47.227c0-1.903 1.595-3.446 3.563-3.446 1.968 0 3.564 1.543 3.564 3.446 0 1.903-1.596 3.445-3.564 3.445s-3.563-1.542-3.563-3.445z"/></g><g><path fill="#d2e9f7" d="M24.104 172.286c0-1.903 1.596-3.445 3.564-3.445s3.564 1.542 3.564 3.445c0 1.903-1.596 3.446-3.564 3.446s-3.564-1.543-3.564-3.446z"/></g><g><path fill="#d2e9f7" d="M389.903 81.684c0-1.007.845-1.824 1.887-1.824s1.887.817 1.887 1.824c0 1.008-.845 1.824-1.887 1.824s-1.887-.816-1.887-1.824z"/></g><g opacity=".6"><path fill="#d2e9f7" d="M195.16 34.66c0-1.008.845-1.824 1.887-1.824 1.041 0 1.886.816 1.886 1.824 0 1.007-.845 1.824-1.886 1.824-1.042 0-1.887-.817-1.887-1.824z"/></g><g><path fill="#d2e9f7" d="M11.317 106.615c0-1.008.845-1.824 1.887-1.824s1.886.816 1.886 1.824c0 1.007-.844 1.824-1.886 1.824-1.042 0-1.887-.817-1.887-1.824z"/></g><g><path fill="#d2e9f7" d="M148.203 207.554v-23.512h40.458c8.386 0 15.094-6.486 15.094-14.593v-6.69h-.21c0-.405.21-.81.21-1.215v-80.67c0-4.663-3.983-8.514-8.805-8.514h-35.636c-5.66 3.243-9.853 8.513-11.32 15h-2.306c-10.062 0-18.238 7.904-18.238 17.633v1.216c0 6.69 3.983 12.567 9.643 15.608v5.27h-1.677V196h-7.337l1.258 7.905c.629 4.054 4.193 7.094 8.595 7.094h18.657v-3.04h-8.386z"/></g><g><path fill="#d2e9f7" d="M300.183 202.892l1.258-7.094h-8.176V146.95h1.677v-20.877h-1.677v-4.256c5.66-3.04 9.643-8.716 9.643-15.608v-1.216c0-9.526-7.966-17.431-17.608-17.634-3.564-9.729-13.207-16.62-23.898-16.62-3.983 0-7.966 1.013-11.74 2.837-1.466-6.688-5.03-12.566-10.061-16.823H237.924c-3.564 0-6.708 2.838-6.708 6.486V209.581h63.936c2.725-1.419 4.402-3.851 5.03-6.689z"/></g><g><path fill="#9ecfef" d="M286.976 203.5H143.382c-1.258 0-2.096-1.013-2.096-2.026v-98.508c0-1.013.838-2.026 2.096-2.026h143.385c1.048 0 2.096 1.013 2.096 2.026v98.508c.21 1.013-.838 2.027-1.887 2.027z"/></g><g><path fill="#005695" d="M285.3 204.92H145.06c-2.936 0-5.242-2.23-5.242-5.068v-72.968h3.145v72.968c0 1.216.838 2.027 2.096 2.027H285.3v3.04z"/></g><g><path fill="#005695" d="M287.396 146.95v-20.877h3.144v20.877z"/></g><g><path fill="#fff" d="M148.623 192.15v-83.306h132.484v83.306z"/></g><g/><g><path fill="#005695" d="M200.4 198.839l2.516 3.648h20.124l2.725-3.648h67.71l-.629 3.445c-.42 3.04-3.144 5.27-6.289 5.27H142.334c-2.725 0-5.031-1.824-5.45-4.459l-.63-4.256zm95.171 3.85l1.258-7.093h-72.95l-2.725 3.648h-16.77l-2.516-3.648H132.48l1.258 7.904c.839 4.054 4.402 7.095 8.595 7.095h144.223c4.612 0 8.595-3.244 9.014-7.905z"/></g><g><path fill="#fff" d="M280.478 88.98h-.629C276.914 79.455 267.9 72.36 257 72.36c-4.611 0-9.013 1.42-12.786 3.649-2.306-15-15.722-26.553-32.073-26.553-14.465 0-26.833 9.324-31.025 22.093-1.887-.405-3.773-.81-5.87-.81-11.11 0-20.333 7.905-22.01 18.242h-3.564c-9.224 0-16.56 7.297-16.56 16.012v1.216c0 8.919 7.546 16.013 16.56 16.013h130.597c9.224 0 16.56-7.297 16.56-16.013v-1.216c.42-8.918-7.126-16.012-16.35-16.012z"/></g><g><path fill="#005695" d="M280.478 123.843h-25.155v-3.04h25.155c8.385 0 15.093-6.486 15.093-14.594v-1.216c0-8.107-6.708-14.593-15.093-14.593h-1.887l-.419-1.014c-2.725-9.12-11.53-15.404-21.172-15.404-4.193 0-8.385 1.216-11.949 3.445l-2.096 1.217-.42-2.23c-2.305-14.594-15.092-25.336-30.395-25.336-13.626 0-25.365 8.513-29.558 21.08l-.419 1.418-1.467-.405c-1.887-.406-3.564-.608-5.45-.608-10.272 0-18.867 7.094-20.334 16.823l-.21 1.216h-5.031c-8.385 0-15.093 6.486-15.093 14.594v1.216c0 8.108 6.708 14.594 15.093 14.594h23.268v3.04h-23.058c-10.063 0-18.238-7.905-18.238-17.634v-1.216c0-9.73 8.175-17.634 18.238-17.634h2.305c2.306-10.54 11.95-18.242 23.269-18.242 1.467 0 3.144.203 4.821.405 4.822-13.175 17.61-21.688 32.073-21.688 16.142 0 29.767 10.743 33.121 25.742a25.669 25.669 0 0 1 11.74-2.838c10.69 0 20.543 6.69 23.897 16.62 9.852.204 17.609 8.109 17.609 17.635v1.216c0 9.526-8.176 17.431-18.238 17.431z"/></g><g><path fill="#9ecfef" d="M214.655 132.356c-5.87 0-10.481-4.459-10.481-10.134 0-5.675 4.612-10.135 10.481-10.135 5.87 0 10.482 4.46 10.482 10.135s-4.612 10.134-10.482 10.134zm28.09-14.999h-5.03c-.63-2.635-1.678-5.067-3.145-7.094l3.563-3.446a3.106 3.106 0 0 0 0-4.459l-2.725-2.635c-1.258-1.216-3.354-1.216-4.612 0l-3.563 3.446c-2.306-1.419-4.612-2.432-7.337-3.04v-4.865c0-1.824-1.467-3.243-3.354-3.243h-3.773c-1.887 0-3.354 1.419-3.354 3.243v4.865c-2.516.608-5.031 1.621-7.337 2.837l-3.564-3.445c-1.258-1.216-3.354-1.216-4.612 0l-2.725 2.635a3.106 3.106 0 0 0 0 4.459l3.564 3.446c-1.468 2.23-2.516 4.459-3.145 7.094h-5.03c-1.887 0-3.355 1.419-3.355 3.243v3.648c0 1.824 1.468 3.243 3.354 3.243h5.031a24.279 24.279 0 0 0 2.935 7.094l-3.564 3.446a3.106 3.106 0 0 0 0 4.46l2.726 2.634c1.257 1.216 3.354 1.216 4.611 0l3.564-3.446c2.306 1.42 4.612 2.433 7.337 3.04v4.865c0 1.825 1.467 3.243 3.354 3.243h3.773c1.887 0 3.354-1.418 3.354-3.243v-4.864c2.725-.608 5.241-1.622 7.337-3.04l3.564 3.445c1.258 1.216 3.354 1.216 4.612 0l2.725-2.635a3.106 3.106 0 0 0 0-4.459l-3.564-3.446c1.468-2.23 2.516-4.459 3.145-7.094h5.03c1.887 0 3.355-1.419 3.355-3.243v-3.648c.21-1.622-1.258-3.04-3.145-3.04z"/></g><g><path fill="#005695" d="M223.46 122.222c0 4.864-3.983 8.716-8.805 8.716-5.03 0-9.014-4.054-9.014-8.716 0-4.662 4.193-8.513 9.014-8.513 5.031 0 9.014 3.851 8.805 8.513zm3.144 0c0-6.284-5.24-11.553-11.949-11.553-6.708 0-12.158 5.067-12.158 11.553 0 6.486 5.45 11.756 12.158 11.756 6.708 0 12.159-5.27 11.949-11.756zm-29.348 21.485c-.419.203-.838.406-1.258.406-.419 0-.838 0-1.257-.406l-2.725-2.635c-.21-.405-.42-.81-.42-1.216 0-.405 0-.81.42-1.216l4.611-4.46-.629-1.013c-1.467-2.027-2.305-4.256-2.934-6.688l-.21-1.217h-6.289c-.838 0-1.677-.608-1.677-1.621v-3.648c0-.406 0-.811.42-1.217.419-.202.838-.405 1.257-.405h6.29l.209-1.216c.629-2.432 1.677-4.662 2.934-6.689l.63-1.013-4.403-4.46c-.21-.405-.42-.81-.42-1.216 0-.405 0-.81.42-1.216l2.725-2.635c.42-.203.839-.405 1.258-.405.42 0 .839 0 1.258.405l4.402 4.46 1.048-.609c2.096-1.216 4.402-2.027 6.708-2.635l1.258-.202v-6.081c0-.81.629-1.621 1.677-1.621h3.773c.839 0 1.677.608 1.677 1.621v6.08l1.258.203c2.516.608 4.822 1.622 6.918 2.838l1.048.608 4.612-4.256c.838-.608 1.886-.608 2.515 0l2.725 2.635c.21.405.42.81.42 1.216 0 .405 0 .81-.42 1.216l-4.402 4.459.63 1.013c1.466 2.027 2.305 4.257 2.934 6.69l.21 1.215h6.288c.839 0 1.677.608 1.677 1.622v3.648c0 .81-.629 1.622-1.677 1.622h-6.289l-.21 1.216c-.628 2.432-1.676 4.662-2.934 6.689l-.629 1.013 4.402 4.46c.21.405.42.81.42 1.215 0 .406 0 .811-.42 1.217l-2.725 2.634c-.838.609-1.886.609-2.515 0l-4.402-4.459-1.049.608c-2.096 1.42-4.402 2.23-6.917 2.838l-1.258.203v6.08c0 .811-.629 1.622-1.677 1.622h-3.773c-.42 0-.839 0-1.258-.406-.21-.405-.42-.81-.42-1.216v-6.08l-1.257-.203c-2.516-.608-4.822-1.622-6.918-2.838l-1.048-.608zm19.286 10.54c2.725 0 4.821-2.23 5.03-4.46v-3.85c1.888-.609 3.774-1.217 5.451-2.23l2.725 2.635c1.887 1.824 5.031 1.824 6.918 0l2.725-2.635a4.667 4.667 0 0 0 1.468-3.446c0-1.216-.63-2.432-1.468-3.243l-2.725-2.635c1.048-1.621 1.677-3.446 2.306-5.27h3.983c2.725 0 4.821-2.027 4.821-4.662v-3.648c0-2.635-2.096-4.662-4.821-4.662h-3.983c-.629-1.824-1.258-3.648-2.306-5.27l2.725-2.635c1.048-.81 1.468-2.027 1.468-3.243 0-1.216-.63-2.432-1.468-3.243l-2.725-2.635c-1.887-1.824-5.031-1.824-6.918 0l-2.725 2.635c-1.677-1.013-3.563-1.621-5.45-2.23v-3.85c0-2.636-2.096-4.662-4.821-4.662h-3.774c-2.725 0-4.821 2.026-4.821 4.661v3.852c-1.887.608-3.773 1.216-5.45 2.23l-2.726-2.636c-1.048-1.013-2.306-1.419-3.563-1.419-1.258 0-2.516.608-3.354 1.42l-2.725 2.634c-1.049.81-1.468 2.027-1.468 3.243 0 1.216.629 2.432 1.468 3.243l2.725 2.635c-1.048 1.622-1.677 3.446-2.306 5.27h-3.774c-1.257.203-2.515.608-3.354 1.419-1.048.81-1.467 2.027-1.467 3.243v3.648c0 2.433 2.096 4.662 4.821 4.662h3.774c.629 1.824 1.258 3.649 2.306 5.27l-2.725 2.635c-1.049.81-1.468 2.027-1.468 3.243 0 1.216.629 2.432 1.468 3.243l2.725 2.635c.838 1.014 2.096 1.419 3.354 1.419 1.257 0 2.515-.608 3.354-1.419l2.725-2.635c1.677 1.014 3.564 1.622 5.45 2.23v3.648a4.81 4.81 0 0 0 1.468 3.446c.838 1.013 2.096 1.419 3.354 1.419h3.773z"/></g><g><path fill="#d2e9f7" d="M342.737 149.18h-5.03v1.418h-5.451v-1.418h-6.708v1.418h-8.385v-1.418h-50.52c-2.935 0-5.45 2.432-5.45 5.27v50.875c0 2.837 2.515 5.27 5.45 5.27h76.304c2.935 0 5.45-2.433 5.45-5.27V154.45c0-2.838-2.515-5.27-5.66-5.27z"/></g><g><path fill="#fff" d="M346.93 209.176h-76.095c-2.306 0-3.983-1.824-3.983-3.851v-50.673c0-2.23 1.887-3.85 3.983-3.85h76.095c2.306 0 3.983 1.823 3.983 3.85v50.673c0 2.027-1.677 3.85-3.983 3.85z"/></g><g><path fill="#005695" d="M346.93 210.595h-76.304c-2.935 0-5.45-2.433-5.45-5.27V154.45c0-2.838 2.515-5.27 5.45-5.27h50.52v3.04h-50.52c-1.258 0-2.306 1.013-2.306 2.23v50.875c0 1.216 1.048 2.23 2.306 2.23h76.304c1.257 0 2.306-1.014 2.306-2.23V154.45c0-1.217-1.049-2.23-2.306-2.23h-5.031v-3.04h5.03c2.935 0 5.451 2.432 5.451 5.27v50.875c.21 3.04-2.306 5.27-5.45 5.27z"/></g><g><path fill="#005695" d="M329.74 152.22v-3.04h6.708v3.04z"/></g><g><path fill="#005695" d="M271.883 187.285v-14.999h3.145v15z"/></g><g><path fill="#d2e9f7" d="M277.753 204.109v-48.443h61.42v48.443z"/></g><g><path fill="#005695" d="M343.785 179.988c0 .406-.21.608-.629.608-.419 0-.628-.202-.628-.608 0-.405.21-.608.628-.608.42 0 .63.203.63.608zm3.145-.202c0-2.027-1.677-3.649-3.774-3.649-2.096 0-3.773 1.622-3.773 3.649s1.677 3.648 3.773 3.648c2.097 0 3.774-1.621 3.774-3.648z"/></g><g><path fill="#005695" d="M312.97 181.813c0 2.23-1.886 4.256-4.402 4.256-2.306 0-4.402-1.824-4.402-4.256 0-2.23 1.886-4.257 4.402-4.257 2.306 0 4.402 2.027 4.402 4.257zm3.145.202c0-4.054-3.354-7.296-7.547-7.296s-7.547 3.242-7.547 7.296 3.354 7.297 7.547 7.297 7.547-3.243 7.547-7.297zm-18.238 11.756h-.42l-1.467-1.418v-.406l2.935-2.838-.629-1.013c-.629-1.013-1.257-2.432-1.467-3.648l-.21-1.217h-4.192c-.21 0-.42-.202-.42-.405v-2.432h4.403l.21-1.216c.419-1.217.838-2.433 1.676-3.649l.63-1.013-2.936-2.838c-.21 0-.21-.203 0-.405l1.677-1.42c0-.202.21-.202.42 0l2.934 2.838 1.049-.608c1.257-.608 2.515-1.216 3.773-1.418l1.258-.203v-4.054c0-.203.21-.405.419-.405h2.306c.21 0 .42.202.42.405v4.054l1.257.203c1.258.202 2.515.81 3.773 1.418l1.048.608 2.935-2.837c0-.203.21-.203.42 0l1.467 1.419v.202l-.21.203-2.935 2.838.63 1.013c.628 1.216 1.257 2.432 1.467 3.649l.21 1.216h4.192c.21 0 .419.202.419.405v2.23c0 .202-.21.405-.42.405h-4.192l-.21 1.216c-.21 1.216-.628 2.432-1.467 3.648l-.629 1.014 2.935 2.838v.405l-1.467 1.419c0 .203-.21.203-.42 0l-2.934-2.838-1.048.608c-1.258.608-2.516 1.216-3.774 1.42l-1.258.202v4.054c0 .202-.21.405-.419.405h-2.515v-4.256l-1.258-.203c-1.258-.405-2.516-.81-3.773-1.622l-1.049-.608zm15.093 3.851v-1.621c.839-.203 1.677-.608 2.516-1.014l1.258 1.217a3.925 3.925 0 0 0 5.03 0l1.468-1.42c.629-.607 1.048-1.62 1.048-2.432 0-1.013-.42-1.824-1.048-2.432l-1.258-1.216c.42-.81.839-1.622 1.048-2.432h1.677c1.887 0 3.564-1.622 3.564-3.446v-2.23c0-2.027-1.677-3.445-3.564-3.445h-1.677c-.21-.811-.629-1.622-1.048-2.433l1.258-1.216c.629-.608 1.048-1.621 1.048-2.432 0-1.014-.42-1.824-1.048-2.432l-1.467-1.42c-1.258-1.216-3.564-1.216-4.822 0l-1.258 1.217c-.838-.406-1.677-.811-2.515-1.014V165.8c0-2.027-1.677-3.446-3.564-3.446h-2.306c-2.096 0-3.563 1.622-3.563 3.446v1.621c-.839.406-1.468.608-2.306 1.014l-1.258-1.216c-.629-.608-1.677-1.014-2.516-1.014a3.53 3.53 0 0 0-2.515 1.014l-1.677 1.419c-.629.608-1.048 1.621-1.048 2.432 0 1.013.419 1.824 1.048 2.432l1.258 1.216c-.42.811-.839 1.622-1.048 2.433h-1.678a3.53 3.53 0 0 0-2.515 1.013c-.629.608-1.048 1.622-1.048 2.432v2.23c0 1.824 1.677 3.446 3.563 3.446h1.678c.21.81.628 1.621 1.048 2.432l-1.258 1.216c-.629.608-1.048 1.622-1.048 2.432 0 1.014.419 1.825 1.048 2.433l1.467 1.419c.63.608 1.677 1.013 2.516 1.013a3.53 3.53 0 0 0 2.515-1.013l1.258-1.217c.839.406 1.677.811 2.516 1.014v1.621c0 1.014.419 1.825 1.048 2.433.629.608 1.677 1.013 2.515 1.013h2.306c1.887 0 3.354-1.621 3.354-3.446z"/></g><g><path fill="#005695" d="M36.263 210.595v-3.04h343.369v3.04z"/></g><g><path fill="#005695" d="M26.62 210.595v-3.04h5.66v3.04z"/></g><g><path fill="#005695" d="M382.776 210.595v-3.04h12.578v3.04z"/></g></g></g></svg>