<svg xmlns="http://www.w3.org/2000/svg" width="420" height="211" viewBox="0 0 420 211"><g><g><g><g><path fill="#fff" d="M381.996 209.308h-85.68v-75.95h94.99V200c-.001 5.077-4.232 9.309-9.31 9.309z"/></g></g><g><g><path fill="#9ecfef" d="M391.305 201.691c0-9.731-14.386-7.192-14.386-7.192v-72.142h7.193c4.02 0 7.193 3.174 7.193 7.193V201.691z"/></g></g><g><g><g><path fill="#d2e9f7" d="M376.92 194.287c0 .211.21 0 .422 0h-.423z"/></g></g><g><g><path fill="#d2e9f7" d="M384.112 122.357h-6.347c4.02 0 7.193 3.174 7.193 7.193v64.948c3.385.635 6.347 2.54 6.347 7.193v-72.353c0-3.807-3.173-6.98-7.193-6.98z"/></g></g></g><g><g><path fill="#005695" d="M380.727 192.806c-.846 0-1.48.212-1.904.212V124.26h5.5c2.962 0 5.501 2.327 5.501 5.5v65.372c-2.539-1.904-6.347-2.327-9.097-2.327zm12.27 9.309c0-.212 0-.212-.211 0h.211zm-.211 0v-72.353c0-4.654-3.808-8.674-8.674-8.674h-8.674v75.526l1.904-.211c1.904-.424 8.04-.635 10.79 1.692 1.057.846 1.692 2.116 1.692 3.808v.212zm0 0z"/></g></g><g><g><path fill="#005695" d="M383.266 211h-88.643v-79.334h75.95v3.173h-72.776v72.988h85.469c3.596 0 6.558-2.962 6.558-6.559v-11.424h3.174v11.424c0 5.29-4.443 9.732-9.732 9.732z"/></g></g><g><g><path fill="#005695" d="M363.59 186.248h4.02v4.02h-4.02zm7.194-3.174h-10.366v10.367h10.366z"/></g></g><g><g><path fill="#005695" d="M353.86 193.44v-3.173h3.173v3.174z"/></g></g><g><g><path fill="#005695" d="M366.13 203.807v-3.173h3.173v3.173z"/></g></g><g><g><path fill="#005695" d="M348.57 203.807v-3.173h11.636v3.173z"/></g></g><g><g><path fill="#005695" d="M351.32 186.248v-3.174h5.713v3.174z"/></g></g><g><g><path fill="#005695" d="M343.916 193.44v-3.173h3.173v3.174z"/></g></g><g><g><path fill="#005695" d="M334.184 193.44v-3.173h3.174v3.174z"/></g></g><g><g><path fill="#005695" d="M324.241 193.44v-3.173h3.174v3.174z"/></g></g><g><g><path fill="#005695" d="M352.378 158.745c0 2.75-2.327 5.078-5.077 5.078s-5.077-2.328-5.077-5.078c0-2.75 2.327-5.077 5.077-5.077s5.077 2.327 5.077 5.077zm3.174-.211c0-4.655-3.808-8.251-8.251-8.251-4.654 0-8.25 3.596-8.25 8.25 0 4.655 3.807 8.251 8.25 8.251s8.25-3.596 8.25-8.25zm-9.52 12.905l-.847-.212c-1.269-.423-2.538-.846-3.808-1.692l-.846-.423-3.596 1.904-1.481-1.481 2.115-3.385-.423-.846c-.846-1.058-1.27-2.54-1.692-3.809l-.212-1.057-3.596-.847v-2.115l3.596-1.058.212-.846c.423-1.27.846-2.539 1.692-3.808l.423-.846-2.115-3.385 1.48-1.481 3.386 2.115.846-.423c1.058-.846 2.539-1.27 3.808-1.692l.846-.212 1.058-4.02h2.115l1.058 4.02.846.212c1.27.423 2.54.846 3.809 1.692l.846.423 3.596-2.115 1.481 1.48-2.115 3.597.423.846c.846 1.058 1.269 2.54 1.692 3.808l.212.847 3.596 1.057v2.116l-3.596 1.058-.212.846c-.423 1.27-.846 2.539-1.692 3.808l-.423.846 2.115 3.597-1.48 1.48-3.597-2.115-.846.423c-1.058.846-2.54 1.27-3.809 1.693l-1.057.211-1.058 4.231h-2.116zm6.558 2.538c1.058-.423 1.904-.846 2.962-1.269l4.02 2.327 5.077-5.077-2.539-4.02c.635-.846 1.058-1.904 1.27-2.962l4.23-1.057v-6.982l-4.23-1.058c-.424-1.057-.847-1.904-1.27-2.961l2.539-4.02-5.078-5.077-4.02 2.327c-.845-.635-1.903-1.058-2.961-1.27l-1.058-4.442h-7.193l-1.058 4.442c-1.057.423-1.904.847-2.961 1.27l-4.02-2.327-5.077 5.077 2.327 4.02-1.27 3.173-4.23 1.27v6.98l4.23 1.059c.424 1.057.847 1.904 1.27 2.961l-2.539 3.808 5.077 5.078 4.02-2.116c.846.423 1.904.846 2.962 1.27l1.058 4.654h7.193z"/></g></g><g><g><path fill="#fff" d="M121.992 110.933H34.195a.455.455 0 0 0-.423.423v97.952h88.643v-97.952a.455.455 0 0 0-.423-.423z"/></g></g><g><g><g><path fill="#9ecfef" d="M121.992 110.933H34.195a.455.455 0 0 0-.423.423v10.79h88.643v-10.79a.455.455 0 0 0-.423-.423z"/></g></g></g><g><g><g><g><path fill="#d2e9f7" d="M104.644 209.308v-2.962l-9.308-1.27c-.423-1.904-1.27-3.808-2.327-5.5l5.712-7.405-4.02-4.02-7.405 5.501c-1.692-1.058-3.596-1.904-5.5-2.327l-1.27-9.308h-5.923l-1.27 9.308c-1.903.423-3.807 1.27-5.5 2.327l-7.404-5.712-4.231 4.02 5.5 7.616c-1.058 1.692-1.904 3.596-2.327 5.5l-9.309 1.27v2.962h19.04c0-4.655 3.809-8.251 8.251-8.251 4.443 0 8.251 3.808 8.251 8.25z"/></g></g></g></g><g><g><g><path fill="#005695" d="M123.684 209.308h-3.173v-96.682h-85.47v96.682h-3.173v-97.952c0-1.058.847-2.115 2.116-2.115h87.796c1.058 0 2.116.846 2.116 2.115v97.952z"/></g></g></g><g><g><g><path fill="#005695" d="M33.56 125.108v-3.174h88.644v3.174z"/></g></g></g><g><g><path fill="#fff" d="M42.235 118.338v-3.174h5.923v3.174z"/></g></g><g><g><path fill="#fff" d="M51.543 118.338v-3.174h5.924v3.174z"/></g></g><g><g><path fill="#fff" d="M61.063 118.338v-3.174h5.924v3.174z"/></g></g><g><g><g><path fill="#005695" d="M110.78 161.707h-67.7v-29.83h3.174v26.657h64.525z"/></g></g></g><g><g><path fill="#005695" d="M115.645 209.308h-3.173c0-9.309-3.597-18.194-10.366-24.753-6.559-6.558-15.444-10.155-24.753-10.155-9.308 0-18.194 3.597-24.752 10.155-6.558 6.559-10.155 15.444-10.155 24.753h-3.173a38.268 38.268 0 0 1 11.212-27.08c7.193-7.193 16.713-11.212 27.08-11.212a38.268 38.268 0 0 1 27.08 11.212c6.98 7.193 11 16.925 11 27.08z"/></g></g><g><g><g><path fill="#005695" d="M51.543 209.308H48.37v-4.443l9.52-1.27c.423-1.48 1.058-2.75 1.692-4.02l-5.712-7.827 6.136-6.135 7.827 5.712c1.27-.635 2.539-1.27 4.02-1.692l1.48-9.52h8.675l1.48 9.52c1.481.423 2.75 1.057 4.02 1.692l7.828-5.712 6.135 6.135-5.712 7.828c.634 1.27 1.27 2.539 1.692 4.02l9.52 1.48v4.232h-3.173v-1.481l-8.885-1.27-.212-1.057c-.423-1.693-1.058-3.385-2.116-5.078l-.634-.846 5.5-7.193-2.115-2.116-7.193 5.5-.847-.634c-1.48-1.058-3.173-1.692-5.077-2.115l-1.058-.212-2.327-9.309h-3.173l-1.27 8.886-1.057.211c-1.693.424-3.385 1.058-5.078 2.116l-.846.635-7.193-5.5-2.115 2.115 5.5 7.193-.635.846c-1.057 1.48-1.692 3.173-2.115 5.077l-.212 1.058-8.885 1.27z"/></g></g><g><g><path fill="#005695" d="M87.085 209.308h-3.173c0-3.809-2.962-6.77-6.77-6.77-3.808 0-6.77 2.962-6.77 6.77h-3.173c0-5.501 4.442-9.944 9.943-9.944 5.5 0 9.943 4.443 9.943 9.944z"/></g></g></g><g><g><g><path fill="#9ecfef" d="M327.415 53.601h-57.756c-.846 0-1.692-.635-1.692-1.692 0-.847.635-1.693 1.692-1.693h57.756c.846 0 1.692.635 1.692 1.693-.212 1.057-.846 1.692-1.692 1.692z"/></g></g></g><g><g><g><path fill="#9ecfef" d="M166.63 39.85H99.568c-.846 0-1.693-.635-1.693-1.693 0-.846.635-1.692 1.693-1.692h67.275c.846 0 1.693.635 1.693 1.692-.212 1.058-1.058 1.693-1.904 1.693z"/></g></g></g><g><g><g><path fill="#9ecfef" d="M66.14 85.123H2.674c-.846 0-1.692-.635-1.692-1.692 0-.847.635-1.693 1.692-1.693h63.468c.846 0 1.692.635 1.692 1.693 0 1.057-.846 1.692-1.692 1.692z"/></g></g></g><g><g><g><path fill="#9ecfef" d="M80.104 85.123h-7.617c-.846 0-1.692-.635-1.692-1.692 0-.847.635-1.693 1.692-1.693h7.617c.846 0 1.692.635 1.692 1.693 0 1.057-.846 1.692-1.692 1.692z"/></g></g></g><g><g><g><path fill="#9ecfef" d="M261.197 53.601h-6.981c-.847 0-1.693-.635-1.693-1.692 0-.847.635-1.693 1.693-1.693h6.981c.846 0 1.692.635 1.692 1.693-.211 1.057-.846 1.692-1.692 1.692z"/></g></g></g><g><g><g><g><path fill="#9ecfef" d="M243.638 53.601h-9.097c-.847 0-1.693-.635-1.693-1.692 0-.847.635-1.693 1.693-1.693h9.097c.846 0 1.692.635 1.692 1.693 0 1.057-.846 1.692-1.692 1.692z"/></g></g><g><g><path fill="#9ecfef" d="M239.195 58.255c-.846 0-1.692-.634-1.692-1.692v-9.097c0-.846.634-1.693 1.692-1.693.846 0 1.692.635 1.692 1.693v9.097c-.211.846-.846 1.692-1.692 1.692z"/></g></g></g></g><g><g><g><g><path fill="#9ecfef" d="M413.942 155.36h-9.097c-.846 0-1.693-.634-1.693-1.692 0-.846.635-1.693 1.693-1.693h9.097c.846 0 1.692.635 1.692 1.693-.211 1.058-.846 1.692-1.692 1.692z"/></g></g><g><g><path fill="#9ecfef" d="M409.287 160.015c-.846 0-1.692-.635-1.692-1.693v-9.097c0-.846.635-1.692 1.692-1.692.847 0 1.693.634 1.693 1.692v9.097c0 .846-.635 1.693-1.693 1.693z"/></g></g></g></g><g><g><g><g><path fill="#9ecfef" d="M97.24 85.123h-9.097c-.847 0-1.693-.635-1.693-1.692 0-.847.635-1.693 1.693-1.693h9.097c.846 0 1.692.635 1.692 1.693 0 1.057-.635 1.692-1.692 1.692z"/></g></g><g><g><path fill="#9ecfef" d="M92.797 89.777c-.846 0-1.692-.634-1.692-1.692v-9.097c0-.846.634-1.693 1.692-1.693 1.058 0 1.692.635 1.692 1.693v9.097c0 .846-.846 1.692-1.692 1.692z"/></g></g></g></g><g><g><g><g><path fill="#9ecfef" d="M366.13 34.35h-9.097c-.847 0-1.693-.635-1.693-1.693 0-.846.635-1.693 1.693-1.693h9.097c.846 0 1.692.635 1.692 1.693s-.846 1.692-1.692 1.692z"/></g></g><g><g><path fill="#9ecfef" d="M361.687 39.004c-.846 0-1.693-.635-1.693-1.693v-9.097c0-.846.635-1.692 1.693-1.692.846 0 1.692.634 1.692 1.692v9.097c-.211.846-.846 1.693-1.692 1.693z"/></g></g></g></g><g><g><g><g><path fill="#9ecfef" d="M50.274 52.332c-.423 0-.846-.212-1.058-.423a1.66 1.66 0 0 1 0-2.328l6.347-6.346a1.66 1.66 0 0 1 2.327 0 1.66 1.66 0 0 1 0 2.327l-6.347 6.347c-.634.211-1.058.423-1.27.423z"/></g></g><g><g><path fill="#9ecfef" d="M56.62 52.332c-.422 0-.846-.212-1.057-.423l-6.347-6.347a1.66 1.66 0 0 1 0-2.327 1.66 1.66 0 0 1 2.327 0l6.347 6.346a1.66 1.66 0 0 1 0 2.328c-.423.211-.846.423-1.27.423z"/></g></g></g></g><g><g><g><g><path fill="#9ecfef" d="M178.901 43.023c-.423 0-.846-.211-1.058-.423a1.66 1.66 0 0 1 0-2.327l6.347-6.347a1.66 1.66 0 0 1 2.327 0 1.66 1.66 0 0 1 0 2.327L180.17 42.6c-.423.212-.846.423-1.269.423z"/></g></g><g><g><path fill="#9ecfef" d="M185.248 43.023c-.423 0-.846-.211-1.058-.423l-6.347-6.347a1.66 1.66 0 0 1 0-2.327 1.66 1.66 0 0 1 2.327 0l6.347 6.347a1.66 1.66 0 0 1 0 2.327c-.423.212-.846.423-1.27.423z"/></g></g></g></g><g><g><g><path fill="#9ecfef" d="M102.106 21.233l-2.328 1.269-2.538-1.27v-2.961l2.538-1.481 2.328 1.48z"/></g></g></g><g><g><g><path fill="#9ecfef" d="M305.201 4.731l-2.539 1.481-2.327-1.48V1.98L302.662.5l2.539 1.48z"/></g></g></g><g><g><g><path fill="#9ecfef" d="M214.231 15.097l-5.712 3.385-5.5-3.385V8.751l5.5-3.174 5.712 3.174z"/></g></g></g><g><g><g><path fill="#9ecfef" d="M17.694 146.898l-3.596 2.116-3.809-2.116v-4.231l3.809-2.116 3.596 2.116z"/></g></g></g><g><g><g><path fill="#9ecfef" d="M418.596 87.027l-3.597 2.116-3.808-2.116v-4.231L415 80.68l3.597 2.116z"/></g></g></g><g><g><g><path fill="#9ecfef" d="M399.979 107.76h-40.196c-.846 0-1.693-.635-1.693-1.693 0-.846.635-1.692 1.693-1.692h40.196c.846 0 1.692.635 1.692 1.692 0 .847-.634 1.693-1.692 1.693z"/></g></g></g><g><g><path fill="#fff" d="M166.42 209.308v-30.042h85.68v30.042z"/></g></g><g><g><path fill="#d2e9f7" d="M166.42 194.287v-15.02h85.68v15.02z"/></g></g><g><g><path fill="#fff" d="M294.2 72.218c2.327 0 4.02 1.904 4.02 4.02v101.124c0 2.327-1.904 4.02-4.02 4.02H126.646c-2.327 0-4.02-1.904-4.02-4.02V76.238c0-2.327 1.905-4.02 4.02-4.02z"/></g></g><g><g><g><path fill="#9ecfef" d="M294.2 72.218c2.327 0 4.02 1.904 4.02 4.02v80.603H122.627V76.238c0-2.327 1.904-4.02 4.02-4.02z"/></g></g></g><g><g><path fill="#005695" d="M293.988 73.699c1.481 0 2.54 1.27 2.54 2.539v101.124c0 1.481-1.27 2.539-2.54 2.539H126.646c-1.48 0-2.538-1.27-2.538-2.539V76.238c0-1.481 1.269-2.539 2.538-2.539zm0 109.375c2.962 0 5.501-2.538 5.712-5.712V76.238a5.688 5.688 0 0 0-5.712-5.712H126.646a5.688 5.688 0 0 0-5.712 5.712v101.124a5.688 5.688 0 0 0 5.712 5.712h167.342z"/></g></g><g><g><path fill="#005695" d="M164.727 209.308v-27.926h3.173v27.926z"/></g></g><g><g><path fill="#005695" d="M250.408 209.308v-27.926h3.173v27.926z"/></g></g><g><g><path fill="#9130ff" d="M150.975 211v-3.173h117.203V211z"/></g></g><g><g><path fill="#005695" d="M122.415 159.38v-3.173h175.593v3.173z"/></g></g><g><g><path fill="#fff" d="M190.96 116.01v-3.173h5.712v3.174z"/></g></g><g><g><path fill="#fff" d="M180.382 116.01v-3.173h5.712v3.174z"/></g></g><g><g><path fill="#fff" d="M169.804 116.01v-3.173h5.712v3.174z"/></g></g><g><g><path fill="#fff" d="M254.427 116.01v-3.173h5.712v3.174z"/></g></g><g><g><path fill="#fff" d="M243.85 116.01v-3.173h5.711v3.174z"/></g></g><g><g><path fill="#fff" d="M233.271 116.01v-3.173h5.712v3.174z"/></g></g><g><g><path fill="#fff" d="M328.472 181.17v-7.827l-6.558-1.904c-.635-2.75-1.692-5.078-3.173-7.405l4.02-6.347-5.501-5.5-6.559 3.808a25.279 25.279 0 0 0-7.404-3.173l-1.904-7.193h-7.828l-1.904 7.193c-2.75.634-5.077 1.692-7.404 2.961l-6.347-3.808-5.5 5.5 3.808 6.348a25.278 25.278 0 0 0-3.174 7.404l-6.558 2.116v7.827l6.558 1.481c.635 2.75 1.693 5.078 3.174 7.405l-4.02 6.135 5.5 5.5 6.559-3.596a25.279 25.279 0 0 0 7.404 3.173l1.904 7.616h7.828l1.692-7.616c2.75-.634 5.078-1.692 7.405-3.173l6.558 3.808 5.5-5.5-4.019-6.347a25.278 25.278 0 0 0 3.174-7.405z"/></g></g><g><g><path fill="#005695" d="M280.872 177.15c0-8.762 7.104-15.866 15.867-15.866 8.763 0 15.867 7.104 15.867 15.867 0 8.763-7.104 15.867-15.867 15.867-8.763 0-15.867-7.104-15.867-15.867z"/></g></g><g><g><g><path fill="#005695" d="M292.93 200.634l-.846-.212c-2.538-.635-4.865-1.692-6.981-2.962l-.846-.423-6.347 3.385-3.808-3.808 3.808-5.924-.423-.846c-1.48-2.115-2.327-4.442-2.962-6.981l-.211-1.058-6.347-1.48v-5.501l6.347-1.904.211-.847c.635-2.538 1.693-4.865 2.962-6.981l.423-.846-3.596-6.135 3.808-3.809 6.135 3.597.846-.423c2.116-1.481 4.443-2.327 6.981-2.962l.847-.212 1.692-6.98h5.5l1.693 6.98.846.212c2.539.635 4.866 1.693 6.982 2.962l.846.423 6.347-3.808 3.808 3.808-3.808 6.135.423.846c1.48 2.116 2.327 4.443 2.962 6.982l.211.846 6.347 1.692v5.501l-6.347 1.692-.211.847c-.635 2.538-1.693 4.866-2.962 6.981l-.423.846 3.808 6.136-3.808 3.808-6.347-3.597-.846.423c-2.116 1.481-4.443 2.327-6.982 2.962l-1.057.212-1.693 7.404h-5.289zm11.848 2.115c2.116-.634 4.231-1.48 6.135-2.538l6.77 4.02 7.404-7.405-4.23-6.559c1.057-1.904 1.903-4.02 2.538-6.135l6.981-1.904v-10.366l-6.981-1.904c-.635-2.116-1.48-4.231-2.539-6.135l4.02-6.77-7.405-7.405-6.77 4.02c-1.904-1.058-4.02-1.904-6.135-2.539l-1.904-7.404h-10.366l-1.904 7.404c-2.116.635-4.231 1.481-6.135 2.539l-6.558-3.808-7.405 7.404 3.808 6.559c-1.058 1.904-1.904 4.02-2.539 6.135l-6.981 2.115v10.367l6.981 1.692c.635 2.116 1.481 4.231 2.54 6.135l-4.232 6.347 7.404 7.405 6.77-3.597c1.904 1.058 4.02 1.904 6.135 2.539l1.904 7.827h10.367z"/></g></g><g><g><path fill="#005695" d="M295.47 156.207v-3.174h3.384v3.174z"/></g></g><g><g><path fill="#005695" d="M313.402 163.607l-2.391-2.395 2.245-2.242 2.392 2.395z"/></g></g><g><g><path fill="#005695" d="M321.583 179.183l-3.174-.004.005-3.385 3.173.004z"/></g></g><g><g><path fill="#005695" d="M313.247 196.083l-2.24-2.247 2.397-2.39 2.24 2.247z"/></g></g><g><g><path fill="#005695" d="M298.887 201.96l-3.385-.005.006-3.174 3.384.007z"/></g></g><g><g><path fill="#005695" d="M281.079 195.927l-2.388-2.399 2.25-2.238 2.387 2.399z"/></g></g><g><g><path fill="#005695" d="M275.943 179.055l-3.174-.008.01-3.385 3.173.008z"/></g></g><g><g><path fill="#005695" d="M280.95 163.496l-2.236-2.251 2.401-2.386 2.237 2.251z"/></g></g></g><g><g><g><path fill="#fff" d="M283.199 177.15v-2.115l7.616-3.596v2.327l-5.077 2.327 5.077 2.327v2.327z"/></g></g><g><g><path fill="#fff" d="M298.854 169.746h2.116l-6.558 14.175h-2.116z"/></g></g><g><g><path fill="#fff" d="M310.067 175.035v2.116l-7.616 3.596v-2.327l5.077-2.327-5.077-2.327v-2.327z"/></g></g></g><g opacity=".11"><g opacity=".11"><g opacity=".11"/></g><g opacity=".11"><g opacity=".11"><path fill="#005695" d="M151.61 139.493c0-2.961-2.327-5.288-5.289-5.288h-25.387v43.157a5.688 5.688 0 0 0 5.712 5.712h24.964z"/></g></g></g><g><g><path fill="#fff" d="M143.57 205.711c0 2.116-1.692 3.597-3.596 3.597h-36.388c-2.115 0-3.596-1.693-3.596-3.597v-66.218c0-2.115 1.692-3.596 3.596-3.596h36.388c2.116 0 3.597 1.692 3.597 3.596z"/></g></g><g><g><path fill="#9ecfef" d="M99.778 198.307v-51.409h43.793v51.409z"/></g></g><g><g><path fill="#005695" d="M139.974 137.378c1.27 0 2.116 1.058 2.116 2.115v66.218c0 1.27-1.058 2.116-2.116 2.116h-36.388c-1.269 0-2.115-1.058-2.115-2.116v-66.218c0-1.269 1.058-2.115 2.115-2.115zm5.29 68.333v-66.218c0-2.961-2.328-5.288-5.29-5.288h-36.388c-2.961 0-5.288 2.327-5.288 5.288v66.218c0 2.962 2.327 5.289 5.288 5.289h36.388c2.962 0 5.29-2.539 5.29-5.289z"/></g></g><g><g><path fill="#005695" d="M99.99 148.379v-3.173h43.792v3.173z"/></g></g><g><g><path fill="#005695" d="M114.799 143.09v-3.173h13.963v3.173z"/></g></g><g><g><path fill="#005695" d="M99.99 199.787v-3.173h43.792v3.173z"/></g></g><g><g><path fill="#d2e9f7" d="M105.914 158.11v-3.173h4.23v3.174z"/></g></g><g><g><path fill="#d2e9f7" d="M115.01 158.11v-3.173h4.232v3.174z"/></g></g><g><g><path fill="#d2e9f7" d="M124.108 158.11v-3.173h4.23v3.174z"/></g></g><g><g><path fill="#d2e9f7" d="M133.205 158.11v-3.173h4.23v3.174z"/></g></g><g><g><path fill="#d2e9f7" d="M105.914 167.208v-3.174h4.23v3.174z"/></g></g><g><g><path fill="#d2e9f7" d="M115.01 167.208v-3.174h4.232v3.174z"/></g></g><g><g><path fill="#d2e9f7" d="M124.108 167.208v-3.174h4.23v3.174z"/></g></g><g><g><path fill="#d2e9f7" d="M133.205 167.208v-3.174h4.23v3.174z"/></g></g><g><g><path fill="#d2e9f7" d="M106.125 176.305v-3.174h4.231v3.174z"/></g></g><g><g><path fill="#d2e9f7" d="M115.222 176.305v-3.174h4.231v3.174z"/></g></g><g><g><path fill="#d2e9f7" d="M124.32 176.305v-3.174h4.23v3.174z"/></g></g><g><g><path fill="#d2e9f7" d="M133.416 176.305v-3.174h4.231v3.174z"/></g></g><g><g><path fill="#d2e9f7" d="M106.548 192.806v-3.173h4.231v3.173z"/></g></g><g><g><path fill="#d2e9f7" d="M115.645 192.806v-3.173h4.231v3.173z"/></g></g><g><g><path fill="#d2e9f7" d="M124.742 192.806v-3.173h4.231v3.173z"/></g></g><g><g><path fill="#9130ff" d="M133.84 192.806v-3.173h4.23v3.173z"/></g></g><g><g><path fill="#9ecfef" d="M228.406 209.308H131.3a.455.455 0 0 1-.424-.424v-17.559c0-.211.212-.423.424-.423h97.105c.211 0 .423.212.423.423v17.56a.455.455 0 0 1-.423.423z"/></g></g><g><g><path fill="#d2e9f7" d="M228.406 201.057h-97.317a.455.455 0 0 1-.423-.423v8.25c0 .212.211.424.423.424h97.317a.455.455 0 0 0 .423-.424v-8.25a.455.455 0 0 1-.423.423z"/></g></g><g><g><g><path fill="#005695" d="M132.57 191.96h94.778v15.232H132.57zm97.74 16.501v-17.559a1.896 1.896 0 0 0-1.904-1.904H131.3a1.896 1.896 0 0 0-1.905 1.904v17.56c0 1.057.847 1.903 1.905 1.903h97.105c1.269 0 2.115-.846 1.904-1.904z"/></g></g><g><g><path fill="#005695" d="M138.705 198.095v-7.616h3.173v7.616z"/></g></g><g><g><path fill="#005695" d="M148.437 198.095v-7.616h3.173v7.616z"/></g></g><g><g><path fill="#005695" d="M158.38 198.095v-7.616h3.173v7.616z"/></g></g><g><g><path fill="#005695" d="M168.112 198.095v-7.616h3.173v7.616z"/></g></g><g><g><path fill="#005695" d="M177.843 198.095v-7.616h3.174v7.616z"/></g></g><g><g><path fill="#005695" d="M187.575 198.095v-7.616h3.173v7.616z"/></g></g><g><g><path fill="#005695" d="M197.518 198.095v-7.616h3.173v7.616z"/></g></g><g><g><path fill="#005695" d="M207.25 198.095v-7.616h3.173v7.616z"/></g></g><g><g><path fill="#005695" d="M216.981 198.095v-7.616h3.174v7.616z"/></g></g></g><g><g><path fill="#fff" d="M342.224 119.607s0 .212 0 0h-36.6l-14.809 11.847c-.211.212-.635 0-.635-.211v-11.424h-7.827V78.565h59.236c.212 0 .635.211.635.635z"/></g></g><g><g><path fill="#d2e9f7" d="M335.03 86.18c0-.21-.21-.634-.634-.634h-52.043v-7.193h59.236c.212 0 .635.212.635.635v40.619h-7.193z"/></g></g><g><g><path fill="#005695" d="M284.045 80.046h56.698v38.08H305.2l-13.328 10.578v-10.578h-7.828zm6.559 53.1c.423 0 .846-.21 1.269-.422l14.386-11.424h37.657V78.988c0-1.058-.846-2.116-2.115-2.116h-60.93V121.3h7.829v9.943c0 .634.423 1.27 1.057 1.692.212.212.635.212.847.212z"/></g></g><g><g><path fill="#005695" d="M314.933 99.086c0 1.692-1.27 2.962-2.962 2.962-1.693 0-2.962-1.27-2.962-2.962 0-1.693 1.27-2.962 2.962-2.962 1.692 0 2.962 1.27 2.962 2.962zm3.173-.212a6.14 6.14 0 0 0-6.135-6.135 6.14 6.14 0 0 0-6.135 6.135 6.14 6.14 0 0 0 6.135 6.136 6.14 6.14 0 0 0 6.135-6.136zm-6.558 9.309l-.846-.212c-.847-.211-1.693-.634-2.54-1.057l-.845-.424-2.328 1.27-.423-.423 1.481-2.116-.634-.846c-.424-.846-.847-1.693-1.058-2.539l-.212-1.058-2.327-.634v-.847l2.327-.846.212-.846c.211-.846.634-1.692 1.058-2.539l.423-.846-1.27-2.327.423-.423 2.328 1.27.846-.424c.846-.423 1.692-.846 2.539-1.058l.846-.211.634-2.539h.635l.635 2.539.846.211c.846.212 1.692.635 2.539 1.058l.846.423 2.327-1.48.423.422-1.48 2.328.422.846c.423.846.847 1.692 1.058 2.538l.212.847 2.327.634v.847l-2.327.634-.212.846c-.211.847-.635 1.693-1.058 2.54l-.423.845 1.481 2.328-.423.423-2.327-1.481-.846.423c-.847.423-1.693.846-2.539 1.058l-1.058.211-.634 2.75h-.635zm4.23 2.116c.636-.212 1.059-.424 1.693-.635l2.962 1.692 4.02-4.02-1.693-2.75c.212-.634.423-1.057.635-1.692l2.962-.846v-5.5l-2.962-.847c-.212-.635-.423-1.058-.635-1.692l1.693-2.962-4.02-4.02-2.962 1.693c-.634-.212-1.057-.423-1.692-.635l-.846-3.173h-5.712l-.847 3.173c-.634.211-1.269.423-1.692.635l-2.75-1.693-4.02 4.02 1.693 2.75c-.212.635-.424 1.058-.635 1.692l-2.962.847v5.5l2.962.635c.211.635.423 1.27.635 1.692l-1.693 2.75 4.02 4.02 2.961-1.48c.635.21 1.058.422 1.693.634l.846 3.385h5.712z"/></g></g><g><g><g><path fill="#005695" d="M406.326 211H18.54c-.846 0-1.692-.635-1.692-1.692 0-.847.634-1.693 1.692-1.693h387.574c.846 0 1.693.635 1.693 1.693 0 .846-.635 1.692-1.481 1.692z"/></g></g></g><g><g><g><path fill="#005695" d="M417.75 211h-5.712c-.847 0-1.693-.635-1.693-1.692 0-.847.635-1.693 1.693-1.693h5.712c.846 0 1.692.635 1.692 1.693 0 .846-.846 1.692-1.692 1.692z"/></g></g></g><g><g><g><path fill="#005695" d="M11.982 211H2.25c-.846 0-1.692-.635-1.692-1.692 0-.847.634-1.481 1.692-1.481h9.732c.846 0 1.692.634 1.692 1.692-.211.635-.846 1.481-1.692 1.481z"/></g></g></g></g></g></svg>