<svg xmlns="http://www.w3.org/2000/svg" width="22" height="17" viewBox="0 0 22 17"><g><g><g><path fill="#005695" d="M20.775 14.327c0 .794-.655 1.44-1.46 1.44H2.69a1.452 1.452 0 0 1-1.46-1.44V3.134c0-.794.655-1.44 1.46-1.44h16.62c.805 0 1.46.646 1.46 1.44v11.193zM19.315.478H2.69C1.206.478 0 1.667 0 3.129v11.198c0 1.462 1.206 2.651 2.69 2.651h16.62c1.484 0 2.69-1.189 2.69-2.651V3.134C22.005 1.67 20.798.478 19.314.478z"/></g><g><path fill="#005695" d="M13.875 8.589l5.38-4.755a.602.602 0 0 0 .046-.857.624.624 0 0 0-.87-.045l-7.42 6.563-1.447-1.274c-.005-.004-.01-.009-.01-.013a.908.908 0 0 0-.1-.086l-5.89-5.195a.62.62 0 0 0-.87.05.599.599 0 0 0 .05.857L8.19 8.629l-5.421 5.002a.602.602 0 0 0-.028.857.62.62 0 0 0 .87.031l5.503-5.073 1.493 1.314a.62.62 0 0 0 .82-.004L12.96 9.4l5.471 5.123a.618.618 0 0 0 .87-.022.602.602 0 0 0-.023-.857z"/></g></g></g></svg>