<svg xmlns="http://www.w3.org/2000/svg" width="39" height="23" viewBox="0 0 39 23"><g><g><path fill="#005695" d="M36.619 21.04c-.074.13-.164.153-.21.16l-5.319-.003a.73.73 0 0 0-.063.002c-1.048.088-1.939-.28-2.8-1.159a45.578 45.578 0 0 1-1.428-1.55c-.226-.252-.459-.513-.693-.769-.29-.317-.648-.681-1.11-.98-.69-.448-1.261-.435-1.619-.345-.354.09-.858.344-1.245 1.05-.5.913-.61 1.898-.656 2.829-.026.57-.122.72-.162.758-.053.05-.229.138-.816.165-2.822.132-5.19-.373-7.241-1.547-1.785-1.021-3.347-2.488-4.917-4.615-2.347-3.182-4.413-6.867-6.697-11.948a1.293 1.293 0 0 1-.116-.36c.059-.019.172-.044.372-.048a143.49 143.49 0 0 1 5.212-.002c.252.004.54.08.758.613 1.029 2.53 2.218 4.733 3.634 6.733.376.531.844 1.192 1.532 1.663.63.432 1.142.411 1.46.318.318-.094.76-.353 1.057-1.057.192-.454.308-.966.365-1.612.165-1.917.135-3.51-.091-5.014-.16-1.077-.716-1.855-1.591-2.252.155-.081.33-.115.574-.115h5.967c.336.075.402.164.425.194.097.128.152.433.186.67l.005 6.657c-.014.638.296 2.053 1.352 2.441a.722.722 0 0 0 .026.01c.961.313 1.597-.365 1.938-.73l.06-.065c1.607-1.705 2.688-3.697 3.533-5.418.44-.889.813-1.808 1.128-2.6.158-.398.302-.464.644-.457h.014l5.82.006c.136 0 .277.001.387.02.277.047.391.105.429.129.004.044.003.17-.081.436-.422 1.33-1.238 2.459-2.102 3.655l-.103.142c-.449.622-.923 1.247-1.38 1.851a89.65 89.65 0 0 0-1.592 2.143c-1.107 1.545-1.01 2.57.371 3.917.327.32.661.636.985.943.917.869 1.784 1.69 2.557 2.617.405.488.864 1.075 1.199 1.721.174.338.131.644.042.803zm-.07-3.499c-.832-.997-1.772-1.888-2.68-2.75-.32-.302-.65-.615-.969-.926-.428-.418-.638-.714-.66-.933-.021-.215.126-.534.464-1.006a88.644 88.644 0 0 1 1.566-2.11c.464-.61.943-1.243 1.402-1.878l.103-.143c.896-1.24 1.823-2.523 2.32-4.087.141-.448.288-1.111-.067-1.693-.355-.583-1.014-.756-1.478-.835a3.729 3.729 0 0 0-.642-.042l-5.813-.005c-1.005-.017-1.702.46-2.082 1.417-.304.764-.663 1.65-1.079 2.49-.796 1.621-1.807 3.49-3.273 5.046l-.065.069c-.1.107-.263.28-.347.32-.159-.099-.342-.67-.334-.97v-.021l-.005-6.718a.765.765 0 0 0-.007-.103c-.13-.958-.384-1.919-1.9-2.218a.76.76 0 0 0-.148-.015h-6.046c-1.138 0-1.74.521-2.222 1.086-.14.165-.51.602-.322 1.137.192.54.762.649.949.684.659.125 1 .498 1.105 1.21.208 1.384.234 2.864.08 4.656-.043.481-.122.847-.25 1.151a.884.884 0 0 1-.09.167.884.884 0 0 1-.163-.092c-.463-.317-.812-.81-1.15-1.286-1.348-1.903-2.481-4.006-3.466-6.428-.406-.993-1.168-1.547-2.145-1.561-1.863-.031-3.585-.03-5.264.002-.792.014-1.347.263-1.651.741-.304.48-.293 1.09.033 1.816 2.33 5.184 4.447 8.955 6.861 12.228 1.7 2.304 3.412 3.903 5.386 5.033 2.074 1.187 4.413 1.769 7.127 1.769.309 0 .623-.008.941-.023 1.674-.077 2.356-.743 2.43-2.374.042-.862.138-1.56.47-2.167.093-.17.198-.284.281-.305.088-.022.244.032.418.145.317.206.59.485.815.73.228.25.458.508.68.757.474.53.964 1.079 1.478 1.602 1.16 1.184 2.5 1.727 3.98 1.613l5.32.002.05-.001a1.79 1.79 0 0 0 1.456-.933c.375-.664.369-1.506-.016-2.252-.401-.776-.923-1.444-1.38-1.996z"/></g></g></svg>