<svg xmlns="http://www.w3.org/2000/svg" width="307" height="202" viewBox="0 0 307 202"><g><g><g><g><path fill="#9ecfef" d="M296.312 112.105h-46.095c-.647 0-1.294-.486-1.294-1.294 0-.809.485-1.294 1.294-1.294h46.095c.647 0 1.294.485 1.294 1.294 0 .808-.647 1.294-1.294 1.294z"/></g><g><path fill="#9ecfef" d="M127.093 13.01h-6.955c-.647 0-1.294-.485-1.294-1.294 0-.647.485-1.294 1.294-1.294h6.955c.647 0 1.294.485 1.294 1.294-.162.647-.647 1.294-1.294 1.294z"/></g><g><path fill="#9ecfef" d="M123.535 16.406c-.647 0-1.294-.485-1.294-1.294V8.158c0-.647.485-1.294 1.294-1.294.646 0 1.293.485 1.293 1.294v6.954c0 .81-.485 1.294-1.293 1.294z"/></g><g><path fill="#9ecfef" d="M298.635 133.037h-6.955c-.646 0-1.293-.485-1.293-1.293 0-.647.485-1.294 1.293-1.294h6.955c.647 0 1.294.485 1.294 1.294 0 .647-.647 1.293-1.294 1.293z"/></g><g><path fill="#9ecfef" d="M295.239 136.434c-.647 0-1.294-.485-1.294-1.294v-6.955c0-.647.485-1.294 1.294-1.294.647 0 1.294.486 1.294 1.294v6.955c-.162.809-.647 1.294-1.294 1.294z"/></g><g><path fill="#9ecfef" d="M80.712 144.83c-.323 0-.647-.161-.809-.323l-4.852-4.852a1.27 1.27 0 0 1 0-1.78 1.27 1.27 0 0 1 1.78 0l4.851 4.853a1.27 1.27 0 0 1 0 1.779c-.323.162-.646.323-.97.323z"/></g><g><path fill="#9ecfef" d="M75.86 144.83c-.324 0-.647-.161-.809-.323a1.27 1.27 0 0 1 0-1.78l4.852-4.851a1.27 1.27 0 0 1 1.78 0 1.27 1.27 0 0 1 0 1.779l-4.853 4.852c-.485.162-.647.323-.97.323z"/></g><g><path fill="#9ecfef" d="M55.708 64.947c-.323 0-.647-.162-.809-.324a1.27 1.27 0 0 1 0-1.779l4.852-4.852a1.27 1.27 0 0 1 1.78 0 1.27 1.27 0 0 1 0 1.78l-4.853 4.851c-.323.162-.646.324-.97.324z"/></g><g><path fill="#9ecfef" d="M60.56 64.947c-.323 0-.647-.162-.809-.324L54.9 59.771a1.27 1.27 0 0 1 0-1.779 1.27 1.27 0 0 1 1.78 0l4.852 4.852a1.27 1.27 0 0 1 0 1.78c-.324.161-.647.323-.97.323z"/></g><g><path fill="#9ecfef" d="M256.907 26.292c-.323 0-.647-.162-.808-.324a1.27 1.27 0 0 1 0-1.779l4.852-4.852a1.27 1.27 0 0 1 1.779 0 1.27 1.27 0 0 1 0 1.78l-4.852 4.851c-.324.162-.647.324-.97.324z"/></g><g><path fill="#9ecfef" d="M261.76 26.292c-.324 0-.648-.162-.81-.324l-4.851-4.852a1.27 1.27 0 0 1 0-1.779 1.27 1.27 0 0 1 1.779 0l4.852 4.852a1.27 1.27 0 0 1 0 1.78c-.324.161-.647.323-.97.323z"/></g><g><path fill="#9ecfef" d="M278.418 72.387c-.323 0-.647-.162-.809-.324a1.27 1.27 0 0 1 0-1.779l4.853-4.852a1.27 1.27 0 0 1 1.779 0 1.27 1.27 0 0 1 0 1.779l-4.852 4.852c-.324.162-.647.324-.97.324z"/></g><g><path fill="#9ecfef" d="M283.432 72.387c-.324 0-.647-.162-.809-.324l-4.852-4.852a1.27 1.27 0 0 1 0-1.78 1.27 1.27 0 0 1 1.78.001l4.851 4.852a1.27 1.27 0 0 1 0 1.78c-.485.16-.647.323-.97.323z"/></g><g><path fill="#9ecfef" d="M174.836 201.738c-.323 0-.647-.162-.808-.324a1.27 1.27 0 0 1 0-1.779l4.852-4.852a1.27 1.27 0 0 1 1.779 0 1.27 1.27 0 0 1 0 1.78l-4.852 4.851c-.486.324-.647.324-.97.324z"/></g><g><path fill="#9ecfef" d="M179.688 201.738c-.323 0-.647-.162-.808-.324l-4.852-4.852a1.27 1.27 0 0 1 0-1.779 1.27 1.27 0 0 1 1.779 0l4.852 4.852a1.27 1.27 0 0 1 0 1.78c-.324.323-.647.323-.97.323z"/></g><g><path fill="#9ecfef" d="M55.093 109.52H13.688c-.647 0-1.132-.485-1.132-1.293 0-.647.485-1.294 1.294-1.294h41.243c.647 0 1.294.485 1.294 1.294-.162.808-.647 1.294-1.294 1.294z"/></g><g><path fill="#9ecfef" d="M52.495 41.01H1.387c-.647 0-1.294-.485-1.294-1.132 0-.647.485-1.294 1.294-1.294h51.27c.647 0 1.294.485 1.294 1.294-.162.485-.809 1.132-1.456 1.132z"/></g><g><path fill="#9ecfef" d="M305.702 52.89h-49.976c-.647 0-1.294-.486-1.294-1.294 0-.647.485-1.294 1.294-1.294h49.976c.647 0 1.294.485 1.294 1.294 0 .808-.485 1.294-1.294 1.294z"/></g><g><path fill="#9ecfef" d="M244.728 39.01h-7.764c-.646 0-1.293-.485-1.293-1.132 0-.647.485-1.294 1.293-1.294h7.764c.647 0 1.294.485 1.294 1.294 0 .485-.486 1.132-1.294 1.132z"/></g><g><path fill="#9ecfef" d="M72.525 6.78L75.598 5l3.073 1.78v3.557l-3.073 1.78-3.073-1.78z"/></g><g><path fill="#9ecfef" d="M64.19 194.844l3.072-1.779 3.073 1.78v3.557l-3.073 1.78-3.073-1.78z"/></g><g><path fill="#9ecfef" d="M250.927 169.984l3.073-1.779 3.073 1.78v3.557l-3.073 1.78-3.073-1.78z"/></g><g><path fill="#9ecfef" d="M197.52 3.057l4.206-2.426 4.043 2.426v4.69l-4.043 2.427-4.205-2.426z"/></g></g><g><g><path fill="#9ecfef" d="M162.537 79.392h-32.705a2.516 2.516 0 0 0-2.516 2.516v17.61a15.095 15.095 0 0 0 10.063 14.217h.594c-.391-1.35-.591-2.748-.594-4.153V94.487h30.19v15.095a15.038 15.038 0 0 1-.593 4.153h.593a15.095 15.095 0 0 0 10.063-14.216v-5.032c0-8.336-6.759-15.095-15.095-15.095z"/></g><g><path fill="#9ecfef" d="M129.832 124.677h45.284c5.558 0 10.064 4.506 10.064 10.063v35.221c0 5.558-4.506 10.064-10.064 10.064h-45.284c-5.558 0-10.063-4.506-10.063-10.064v-35.22c0-5.558 4.505-10.064 10.063-10.064z"/></g><g><g><path fill="#d2e9f7" d="M170.085 164.93h15.095v5.031c0 5.558-4.506 10.064-10.064 10.064h-5.031z"/></g><g><path fill="#d2e9f7" d="M119.769 164.93h15.094v15.095h-5.031c-5.558 0-10.063-4.506-10.063-10.064z"/></g><g><path fill="#d2e9f7" d="M152.474 142.288l-12.579-17.611h25.158z"/></g><g><path fill="#d2e9f7" d="M167.01 96.628l-22.083-2.14h-7.548v15.094a15.04 15.04 0 0 0 18.869 14.591c11.783-8.654 10.773-20.67 10.762-27.545z"/></g><g><path fill="#d2e9f7" d="M79.516 117.13h20.126v7.547a2.516 2.516 0 0 1-2.516 2.516H82.032a2.516 2.516 0 0 1-2.516-2.516z"/></g></g><g><path fill="#9ecfef" d="M177.632 59.266h47.8c0 5.557-4.505 10.063-10.063 10.063h-27.674c-5.557 0-10.063-4.506-10.063-10.063z"/></g><g><path fill="#d2e9f7" d="M118.282 36.28c-1.39 0-21.054-1.89-21.054-3.28l-10.165 1.108h-2.516a5.032 5.032 0 0 0-5.031 5.032v17.61h40.253v-7.547z"/></g><g><path fill="#9ecfef" d="M104.674 66.813H94.61l-5.032 10.064h20.126z"/></g><g><path fill="#9ecfef" d="M79.516 56.75h40.253v5.032a5.032 5.032 0 0 1-5.032 5.031h-30.19a5.032 5.032 0 0 1-5.031-5.031z"/></g><g><path fill="#d2e9f7" d="M223.204 36.107c-1.39 0-19.674-.61-19.674-1.999H195.243a5.032 5.032 0 0 0-5.032 5.032v20.126h35.221v-7.547z"/></g><g><path fill="#9ecfef" d="M220.4 102.035a7.548 7.548 0 1 1-15.095-.001 7.548 7.548 0 0 1 15.096 0z"/></g><g/><g><path fill="#005695" d="M215.37 66.813a7.562 7.562 0 0 0 7.117-5.031h-41.91a7.562 7.562 0 0 0 7.118 5.031zm-40.254 27.674c-.008-6.944-5.634-12.57-12.579-12.579h-32.705v17.61a12.581 12.581 0 0 0 5.031 10.042V94.487a2.516 2.516 0 0 1 2.516-2.516h30.19a2.516 2.516 0 0 1 2.516 2.516v15.073a12.581 12.581 0 0 0 5.031-10.041zm-10.063 2.516h-25.158v12.58c0 6.946 5.632 12.578 12.58 12.578 6.946 0 12.578-5.632 12.578-12.579zm-20.27 30.19l7.691 10.764 7.691-10.764zm37.88 7.547a7.548 7.548 0 0 0-7.547-7.547h-8.767l-11.36 15.902v26.866a2.516 2.516 0 0 1-5.03 0v-26.866l-11.36-15.902h-8.767a7.548 7.548 0 0 0-7.548 7.547v27.674h10.064v-17.61a2.516 2.516 0 0 1 5.031 0v32.705h30.19v-32.706a2.516 2.516 0 0 1 5.032 0v17.611h10.063V134.74zm0 32.706h-10.062v10.063h2.515a7.548 7.548 0 0 0 7.548-7.548zm-50.315 10.063v-10.063h-10.064v2.515a7.548 7.548 0 0 0 7.548 7.548zm72.958-50.316h15.095v-12.58a2.516 2.516 0 0 0-2.516-2.515h-10.063a2.516 2.516 0 0 0-2.516 2.516zm2.516-25.158a5.032 5.032 0 1 0 10.064 0 5.032 5.032 0 0 0-10.064 0zm-125.79 22.642h15.094v-5.032H82.032zm0-22.642v12.579h15.094v-12.58zm23.602-27.674l-2.515-5.032h-6.953l-2.516 5.032zM84.547 64.298h30.19a2.516 2.516 0 0 0 2.516-2.516v-2.516H82.032v2.516a2.516 2.516 0 0 0 2.515 2.516zm0-27.674a2.516 2.516 0 0 0-2.515 2.516v15.094h19.084l15.961-15.96a2.503 2.503 0 0 0-2.34-1.65h-14.053l-8.068 8.068a2.516 2.516 0 1 1-3.558-3.557l4.51-4.511h-9.02zm32.706 8.589l-9.022 9.021h9.022zM220.4 31.593a7.548 7.548 0 0 1 7.547 7.547v20.126c-.008 6.944-5.635 12.57-12.579 12.579h-15.095V86.94c-.008 6.944-5.634 12.57-12.579 12.579h-7.547a17.61 17.61 0 0 1-11.251 16.37 17.628 17.628 0 0 1-4.123 6.272h10.342c6.945.009 12.57 5.635 12.58 12.58v27.673h15.094a7.548 7.548 0 0 0 7.548-7.547v-22.643h-7.548a2.516 2.516 0 0 1-2.516-2.515v-15.095a7.546 7.546 0 0 1 4.355-6.813 10.064 10.064 0 0 1 14.923-13.31 10.065 10.065 0 0 1 1.526 13.31 7.546 7.546 0 0 1 4.354 6.813v15.095a2.516 2.516 0 0 1-2.515 2.515h-7.548v22.643c-.008 6.944-5.635 12.57-12.579 12.579h-15.095v2.515c-.008 6.945-5.634 12.57-12.579 12.58h-45.284c-6.944-.01-12.57-5.635-12.58-12.58v-12.579h-17.61c-6.944-.008-12.57-5.634-12.579-12.579V129.71h-5.031A5.032 5.032 0 0 1 77 124.677v-22.642a5.032 5.032 0 0 1 5.032-5.032h15.094a5.032 5.032 0 0 1 5.032 5.032v22.642a5.032 5.032 0 0 1-5.032 5.032h-5.031v15.094a7.548 7.548 0 0 0 7.547 7.548h17.61v-17.61c.01-6.945 5.636-12.571 12.58-12.58h10.342a17.628 17.628 0 0 1-4.123-6.272 17.61 17.61 0 0 1-11.25-16.37V91.97h-15.096c-6.944-.008-12.57-5.634-12.579-12.579H84.547a2.516 2.516 0 0 1 0-5.031h3.477l2.516-5.032h-5.993A7.548 7.548 0 0 1 77 61.782V39.14a7.548 7.548 0 0 1 7.547-7.548h30.19a7.548 7.548 0 0 1 7.547 7.548v22.642a7.548 7.548 0 0 1-7.547 7.547h-5.992l2.516 5.032h3.476a2.516 2.516 0 0 1 0 5.031h-12.579a7.548 7.548 0 0 0 7.547 7.548H124.8v-5.032a5.032 5.032 0 0 1 5.032-5.031h32.705c9.722.01 17.6 7.889 17.611 17.61h7.547a7.548 7.548 0 0 0 7.548-7.547V71.845h-7.548c-6.944-.009-12.57-5.635-12.579-12.579a2.516 2.516 0 0 1 2.516-2.516h10.063V39.14a7.548 7.548 0 0 1 7.548-7.548H220.4z"/></g></g></g></g></svg>