<svg xmlns="http://www.w3.org/2000/svg" width="19" height="24" viewBox="0 0 19 24"><g><g><g><path fill="#005695" d="M17.5 11.19c0 .01-.005.02-.005.03l-.044.216v.01a8.06 8.06 0 0 1-.552 1.64c-.005.006-.005.016-.01.02-.928 2.23-2.964 5.631-7.394 9.34-4.43-3.709-6.466-7.11-7.394-9.34-.005-.004-.005-.014-.01-.02a8.598 8.598 0 0 1-.552-1.64v-.01c-.03-.115-.04-.19-.044-.216 0-.01-.005-.02-.005-.035a8.321 8.321 0 0 1-.15-1.57c0-4.553 3.66-8.262 8.155-8.262 4.494 0 8.154 3.709 8.154 8.262 0 .533-.05 1.062-.149 1.575zM9.495 0C4.261 0 0 4.317 0 9.62a9.59 9.59 0 0 0 .233 2.128c.144.65.358 1.288.636 1.897 1.023 2.44 3.273 6.189 8.209 10.204a.669.669 0 0 0 .844 0c4.931-4.015 7.186-7.763 8.209-10.204a9.453 9.453 0 0 0 .7-2.219c.11-.593.169-1.202.169-1.806C18.99 4.317 14.73 0 9.495 0z"/></g><g><path fill="#005695" d="M9.495 13.164c-1.873 0-3.394-1.544-3.394-3.438 0-1.894 1.525-3.438 3.394-3.438 1.87 0 3.394 1.544 3.394 3.438 0 1.894-1.521 3.438-3.394 3.438zm0-7.86c-2.405 0-4.364 1.985-4.364 4.422 0 2.437 1.959 4.422 4.364 4.422s4.364-1.985 4.364-4.422c0-2.437-1.959-4.422-4.364-4.422z"/></g></g></g></svg>