<svg xmlns="http://www.w3.org/2000/svg" width="22" height="22" viewBox="0 0 22 22"><g><g><path fill="#005695" d="M20.292 18.359c-.005 0-.005.005 0 0-.193.207-.391.395-.604.603-.322.306-.648.627-.955.988-.5.534-1.09.786-1.862.786-.074 0-.153 0-.227-.005-1.47-.094-2.837-.667-3.862-1.156-2.801-1.355-5.262-3.278-7.306-5.715C3.788 11.83 2.659 9.95 1.91 7.933c-.46-1.23-.628-2.19-.554-3.094.05-.578.272-1.058.683-1.468l1.688-1.686c.243-.227.5-.35.753-.35.312 0 .564.187.722.345l.015.015c.302.282.59.574.891.885.154.158.312.316.47.48l1.352 1.349c.525.524.525 1.008 0 1.532-.144.144-.282.287-.426.425-.416.426-.812.821-1.242 1.207-.01.01-.02.014-.025.024-.426.425-.346.84-.257 1.122l.014.045c.352.85.847 1.65 1.6 2.605l.004.005c1.367 1.68 2.807 2.99 4.396 3.994.203.128.411.232.61.331.177.09.346.173.49.262.02.01.039.025.059.035.168.084.326.123.49.123.41 0 .668-.257.752-.34l1.693-1.691c.169-.168.436-.371.748-.371.307 0 .56.193.713.36l.01.01 2.727 2.724c.51.505.51 1.024.005 1.548zm-1.772-5.206c-.48-.499-1.06-.766-1.673-.766-.61 0-1.193.262-1.693.761l-1.565 1.558c-.128-.07-.257-.134-.38-.198a6.29 6.29 0 0 1-.49-.262c-1.466-.93-2.798-2.14-4.075-3.708-.619-.78-1.035-1.438-1.337-2.105.406-.371.782-.757 1.149-1.127.138-.139.277-.282.416-.42 1.04-1.039 1.04-2.383 0-3.421L7.52 2.115c-.153-.153-.312-.311-.46-.47a23.356 23.356 0 0 0-.93-.919C5.648.252 5.074 0 4.47 0c-.603 0-1.187.252-1.682.726l-.01.01-1.683 1.696A3.614 3.614 0 0 0 .02 4.73c-.118 1.444.307 2.788.634 3.668.802 2.16 2 4.162 3.787 6.308 2.168 2.585 4.777 4.626 7.757 6.065 1.139.539 2.659 1.176 4.357 1.285.104.005.212.01.311.01 1.144 0 2.104-.41 2.857-1.226.005-.01.015-.015.02-.025.257-.311.554-.593.866-.894.213-.203.43-.416.643-.638.49-.51.748-1.102.748-1.71 0-.613-.262-1.202-.762-1.696z"/></g></g></svg>