<svg xmlns="http://www.w3.org/2000/svg" width="27" height="28" viewBox="0 0 27 28"><g><g><path fill="#005695" d="M1.612 4.212a2.384 2.384 0 0 1 2.382-2.38h19.155a2.384 2.384 0 0 1 2.381 2.38v19.156a2.384 2.384 0 0 1-2.381 2.381h-5.556v-6.456h3.847l1.058-6.35h-4.905v-1.587h4.762v-6.35H16.8a5.562 5.562 0 0 0-5.556 5.556v2.381H8.068v6.35h3.175v6.456h-7.25a2.384 2.384 0 0 1-2.38-2.381zm2.382 23.124h8.836v-9.63H9.655V14.53h3.175v-3.969a3.973 3.973 0 0 1 3.97-3.968h3.968v3.174h-3.175a1.59 1.59 0 0 0-1.588 1.588v3.175h4.62l-.53 3.175h-4.09v9.63h7.144a3.973 3.973 0 0 0 3.969-3.968V4.212A3.973 3.973 0 0 0 23.149.244H3.994a3.973 3.973 0 0 0-3.97 3.968v19.156a3.973 3.973 0 0 0 3.97 3.968z"/></g></g></svg>