<svg xmlns="http://www.w3.org/2000/svg" width="17" height="18" viewBox="0 0 17 18"><g><g><g><path fill="#313131" d="M.935 2.643c0-.824.67-1.494 1.494-1.494h12.02c.823 0 1.494.67 1.494 1.494v12.02c0 .823-.67 1.494-1.495 1.494h-3.486v-4.051h2.414l.664-3.984h-3.078v-.997h2.988V3.141h-3.486a3.49 3.49 0 0 0-3.486 3.486v1.495H4.986v3.984h1.992v4.05h-4.55c-.823 0-1.493-.67-1.493-1.493zm1.494 14.51h5.545V11.11H5.982V9.118h1.992v-2.49a2.493 2.493 0 0 1 2.49-2.49h2.49v1.991h-1.992a.997.997 0 0 0-.996.996v1.993h2.898l-.332 1.992H9.966v6.043h4.482a2.493 2.493 0 0 0 2.49-2.49V2.643a2.493 2.493 0 0 0-2.49-2.49H2.428a2.493 2.493 0 0 0-2.49 2.49v12.02a2.493 2.493 0 0 0 2.49 2.49z"/></g></g></g></svg>