<svg xmlns="http://www.w3.org/2000/svg" width="14" height="18" viewBox="0 0 14 18"><g><g><g><path fill="#313131" d="M12.895 8.392c0 .008-.004.016-.004.023a9.93 9.93 0 0 1-.033.162v.008a6.12 6.12 0 0 1-.406 1.23c-.003.004-.003.011-.007.015-.684 1.672-2.185 4.223-5.449 7.004-3.264-2.781-4.764-5.332-5.448-7.004-.004-.004-.004-.011-.007-.015a6.528 6.528 0 0 1-.407-1.23v-.008c-.022-.086-.029-.143-.033-.162 0-.007-.003-.015-.003-.026a6.35 6.35 0 0 1-.11-1.178c0-3.415 2.697-6.196 6.008-6.196 3.312 0 6.009 2.781 6.009 6.196 0 .4-.037.797-.11 1.181zM6.996 0C3.14 0 0 3.238 0 7.215a7.317 7.317 0 0 0 .172 1.596c.106.487.263.966.468 1.423.754 1.83 2.412 4.641 6.049 7.653a.487.487 0 0 0 .622 0c3.634-3.012 5.295-5.823 6.049-7.653a7.178 7.178 0 0 0 .516-1.664c.08-.445.124-.902.124-1.355C13.993 3.238 10.853 0 6.996 0z"/></g><g><path fill="#313131" d="M6.996 9.873c-1.38 0-2.5-1.158-2.5-2.579 0-1.42 1.123-2.578 2.5-2.578 1.378 0 2.501 1.158 2.501 2.578s-1.12 2.58-2.5 2.58zm0-5.895c-1.772 0-3.216 1.489-3.216 3.316 0 1.828 1.444 3.317 3.216 3.317 1.773 0 3.216-1.49 3.216-3.317 0-1.827-1.443-3.316-3.216-3.316z"/></g></g></g></svg>