<svg xmlns="http://www.w3.org/2000/svg" width="17" height="18" viewBox="0 0 17 18"><g><g><g><path fill="#313131" d="M.935 2.643c0-.824.67-1.494 1.494-1.494h12.02c.823 0 1.494.67 1.494 1.494v12.02c0 .823-.67 1.494-1.495 1.494H2.428c-.823 0-1.493-.67-1.493-1.494zm1.494 14.51h12.02a2.493 2.493 0 0 0 2.49-2.49V2.643a2.493 2.493 0 0 0-2.49-2.49H2.428a2.493 2.493 0 0 0-2.49 2.49v12.02a2.493 2.493 0 0 0 2.49 2.49z"/></g><g><path fill="#313131" d="M8.439 5.167a3.49 3.49 0 0 1 3.486 3.486 3.49 3.49 0 0 1-3.486 3.486 3.49 3.49 0 0 1-3.487-3.486A3.49 3.49 0 0 1 8.44 5.166zm0 7.968a4.488 4.488 0 0 0 4.482-4.482A4.488 4.488 0 0 0 8.44 4.17a4.488 4.488 0 0 0-4.483 4.483 4.488 4.488 0 0 0 4.483 4.482z"/></g><g><path fill="#313131" d="M13.42 3.174a.499.499 0 1 1-.002.998.499.499 0 0 1 .001-.998zm0 1.993c.823 0 1.493-.67 1.493-1.495 0-.823-.67-1.494-1.494-1.494s-1.494.67-1.494 1.494.67 1.495 1.494 1.495z"/></g></g></g></svg>