<svg xmlns="http://www.w3.org/2000/svg" width="48" height="48" viewBox="0 0 48 48"><defs><radialGradient id="qtn4a" cx="2970.28" cy="3197.77" r="1909.27" gradientUnits="userSpaceOnUse"><stop offset="0" stop-color="#009fe3"/><stop offset="1" stop-color="#0069b4"/></radialGradient></defs><g><g><path fill="url(#qtn4a)" d="M2.704 35.36A23.79 23.79 0 0 1 0 26.76h28.351a4.307 4.307 0 0 1 4.315 4.3c0 2.375-1.931 4.3-4.315 4.3zM23.92 0C37.22 0 48 10.745 48 24S37.219 48 23.92 48a24.044 24.044 0 0 1-17.117-7.121h21.55c5.44 0 9.852-4.397 9.852-9.82A9.77 9.77 0 0 0 35.199 24a9.773 9.773 0 0 0 3.006-7.06c0-5.422-4.41-9.818-9.852-9.818H6.803A24.044 24.044 0 0 1 23.92 0zM0 21.24a23.79 23.79 0 0 1 2.704-8.6h25.65a4.307 4.307 0 0 1 4.314 4.3c0 2.376-1.931 4.3-4.315 4.3z"/></g></g></svg>