<svg xmlns="http://www.w3.org/2000/svg" width="16" height="13" viewBox="0 0 16 13"><g><g><g><path fill="#313131" d="M15.11 10.55c0 .577-.477 1.047-1.063 1.047H1.957c-.586 0-1.063-.47-1.063-1.047V2.41c0-.578.477-1.048 1.063-1.048h12.086c.586 0 1.063.47 1.063 1.048v8.14zM14.046.478H1.957C.877.478 0 1.343 0 2.406v8.144c0 1.063.877 1.928 1.957 1.928h12.086c1.08 0 1.957-.865 1.957-1.928V2.41c.003-1.064-.874-1.932-1.953-1.932z"/></g><g><path fill="#313131" d="M10.09 6.377l3.914-3.459a.438.438 0 0 0 .033-.623.454.454 0 0 0-.632-.032L8.008 7.036l-1.052-.927a.66.66 0 0 0-.08-.072L2.592 2.26a.45.45 0 0 0-.632.036.435.435 0 0 0 .036.623l3.96 3.488-3.943 3.638a.438.438 0 0 0-.02.623.452.452 0 0 0 .632.023L6.628 7l1.086.956a.45.45 0 0 0 .596-.003l1.115-.986 3.98 3.726a.45.45 0 0 0 .632-.016.438.438 0 0 0-.017-.623z"/></g></g></g></svg>