<svg xmlns="http://www.w3.org/2000/svg" width="39" height="23" viewBox="0 0 39 23"><g><g><path fill="#005695" d="M36.408 21.2l-5.318-.003a.73.73 0 0 0-.063.002c-1.048.088-1.939-.28-2.8-1.159a45.578 45.578 0 0 1-1.429-1.55c-.225-.252-.458-.513-.692-.769-.29-.317-.649-.681-1.11-.98-.69-.448-1.261-.435-1.62-.345-.354.09-.857.344-1.244 1.05-.5.913-.611 1.898-.656 2.829-.026.57-.122.72-.162.758-.053.05-.23.138-.816.165-2.822.132-5.19-.373-7.242-1.547-1.784-1.021-3.346-2.488-4.916-4.615-2.347-3.182-4.413-6.867-6.697-11.947a1.293 1.293 0 0 1-.116-.36c.058-.02.172-.045.372-.049a143.49 143.49 0 0 1 5.212-.002c.252.004.54.08.758.613 1.029 2.53 2.217 4.733 3.634 6.733.376.531.844 1.192 1.532 1.663.63.432 1.141.411 1.46.318.318-.094.76-.353 1.057-1.057.192-.454.308-.966.365-1.612.164-1.917.135-3.51-.091-5.014-.16-1.077-.716-1.855-1.592-2.252.156-.081.331-.115.575-.115h5.967c.336.075.402.164.425.194.096.129.152.433.186.67l.005 6.657c-.014.638.296 2.053 1.352 2.441a.722.722 0 0 0 .026.01c.96.313 1.597-.365 1.938-.73l.06-.065c1.606-1.705 2.688-3.697 3.533-5.418.44-.889.813-1.808 1.128-2.6.158-.398.302-.464.644-.457h.014l5.82.006c.136 0 .277.001.386.02.278.047.392.105.43.129.003.044.003.17-.081.436-.422 1.33-1.238 2.459-2.102 3.655l-.103.142c-.449.622-.923 1.247-1.38 1.851a89.65 89.65 0 0 0-1.593 2.144c-1.106 1.544-1.009 2.569.372 3.916.326.32.661.636.985.943.917.869 1.784 1.69 2.557 2.617.405.488.864 1.075 1.199 1.721.174.338.131.644.042.803-.074.13-.164.153-.21.16zm.141-3.659c-.832-.997-1.772-1.888-2.68-2.75-.32-.302-.65-.615-.97-.926-.427-.418-.637-.714-.659-.933-.021-.215.126-.534.464-1.006a88.644 88.644 0 0 1 1.566-2.11c.463-.61.943-1.243 1.402-1.878l.103-.143c.896-1.24 1.823-2.523 2.319-4.087.142-.448.29-1.111-.066-1.693-.355-.583-1.014-.756-1.478-.835a3.729 3.729 0 0 0-.642-.042l-5.813-.005c-1.005-.017-1.702.46-2.082 1.417-.304.764-.663 1.65-1.079 2.49-.796 1.621-1.807 3.49-3.273 5.046l-.066.069c-.1.107-.262.28-.346.32-.159-.099-.342-.67-.334-.97v-.021l-.005-6.718a.765.765 0 0 0-.007-.103c-.13-.958-.384-1.919-1.9-2.218a.76.76 0 0 0-.148-.015h-6.047c-1.137 0-1.739.521-2.221 1.086-.14.165-.51.602-.322 1.137.192.54.761.649.948.684.66.125 1 .498 1.106 1.21.208 1.384.234 2.864.08 4.656-.043.481-.122.847-.25 1.151a.884.884 0 0 1-.09.167.884.884 0 0 1-.163-.092c-.463-.317-.812-.81-1.15-1.286-1.348-1.903-2.481-4.006-3.466-6.428-.406-.993-1.168-1.547-2.146-1.561-1.862-.031-3.584-.03-5.263.002-.792.014-1.348.263-1.651.741-.304.48-.293 1.09.033 1.816 2.33 5.184 4.447 8.955 6.861 12.228 1.7 2.304 3.411 3.903 5.386 5.033 2.074 1.187 4.413 1.769 7.127 1.769.309 0 .623-.008.94-.023 1.675-.077 2.356-.743 2.43-2.374.042-.862.138-1.56.471-2.167.093-.17.198-.284.281-.305.088-.022.244.032.418.145.317.206.59.485.815.73.227.25.458.508.68.757.474.53.964 1.079 1.477 1.602 1.162 1.184 2.5 1.727 3.98 1.613l5.32.002.05-.001a1.79 1.79 0 0 0 1.456-.933c.376-.664.37-1.506-.015-2.252-.402-.776-.923-1.444-1.38-1.996z"/></g></g></svg>