<svg xmlns="http://www.w3.org/2000/svg" width="30" height="30" viewBox="0 0 30 30"><g><g><path fill="#005695" d="M27.076 19.661a.843.843 0 0 0-.113 1.023c0 .006.258.445.289 1.047.044.822-.351 1.55-1.18 2.171a.855.855 0 0 0-.288.966c0 .007.27.835-.17 1.619-.42.753-1.355 1.292-2.772 1.593-1.136.245-2.68.289-4.574.138h-.088c-4.033.088-8.111-.439-8.155-.445h-.006l-.634-.075c.038-.176.056-.364.056-.552V16.945c0-.27-.044-.533-.119-.778.113-.42.427-1.355 1.167-2.152 2.817-2.233 5.571-9.768 5.69-10.094a.794.794 0 0 0 .038-.42c-.107-.703-.07-1.562.081-1.82.333.007 1.23.1 1.77.847.64.885.614 2.466-.076 4.561-1.054 3.193-1.142 4.875-.307 5.615.414.37.966.389 1.367.245.383-.088.747-.164 1.092-.22l.082-.019c1.926-.42 5.376-.677 6.574.414 1.017.929.295 2.158.214 2.29a.839.839 0 0 0 .15 1.092c.006.006.665.627.696 1.461.026.559-.238 1.13-.784 1.694zm-24.071 8.4a.917.917 0 0 1-.916-.915V16.945c0-.508.414-.916.916-.916h3.827c.508 0 .916.414.916.916v10.194a.917.917 0 0 1-.916.916H3.005zm26.55-10.156c-.038-.954-.465-1.7-.816-2.158.408-1.017.564-2.616-.797-3.859-.997-.91-2.691-1.317-5.038-1.204-1.65.075-3.03.383-3.086.395h-.006c-.314.057-.647.126-.985.2-.025-.4.044-1.398.784-3.644.878-2.673.828-4.718-.163-6.085C18.406.113 16.744 0 16.254 0c-.47 0-.903.194-1.21.552-.697.81-.615 2.302-.527 2.993-.828 2.22-3.15 7.666-5.113 9.178a.671.671 0 0 0-.1.088 6.74 6.74 0 0 0-1.23 1.844c-.37-.2-.79-.314-1.242-.314H3.005a2.612 2.612 0 0 0-2.61 2.61v10.195a2.612 2.612 0 0 0 2.61 2.61h3.827c.558 0 1.079-.176 1.505-.477l1.475.175c.225.032 4.24.54 8.362.458.747.057 1.45.088 2.102.088 1.123 0 2.101-.088 2.917-.263 1.92-.408 3.23-1.224 3.896-2.422.508-.916.508-1.826.426-2.403 1.249-1.13 1.468-2.377 1.425-3.256a4.238 4.238 0 0 0-.258-1.26c.615-.785.91-1.626.872-2.491z"/></g></g></svg>