<svg xmlns="http://www.w3.org/2000/svg" width="16" height="18" viewBox="0 0 16 18"><g><g><path fill="#005695" d="M5.006 4.124c0-.012.004-.023.004-.031C5.14 1.337 7.104 1 7.953 1H8c1.052.023 2.857.487 2.978 3.093 0 .012 0 .023.004.03.004.028.276 2.641-.962 4.017-.491.546-1.12.852-1.981.86H8c-.857-.008-1.54-.314-2.028-.86-1.234-1.368-.97-3.993-.966-4.016zM7.932 10h.124c1.142-.02 2.065-.415 2.747-1.172 1.5-1.668 1.25-4.527 1.223-4.8-.098-2.049-1.08-3.029-1.89-3.486C9.534.2 8.829.015 8.042 0h-.066c-.433 0-1.282.07-2.096.527-.818.457-1.815 1.437-1.913 3.5-.027.274-.276 3.133 1.224 4.8.677.758 1.6 1.154 2.742 1.173z"/></g><g><path fill="#005695" d="M15.999 14.448v-.01c0-.03-.004-.058-.004-.09-.023-.708-.074-2.364-1.765-2.894l-.038-.01c-1.757-.412-3.218-1.342-3.234-1.353a.556.556 0 0 0-.732.118.458.458 0 0 0 .129.673 12.625 12.625 0 0 0 3.556 1.492c.908.296 1.009 1.187 1.036 2.003 0 .032 0 .06.004.089.004.322-.02.82-.082 1.105-.63.33-3.104 1.467-6.867 1.467-3.747 0-6.236-1.141-6.871-1.47-.063-.286-.09-.784-.082-1.106 0-.028.004-.057.004-.089.027-.816.128-1.706 1.036-2.003 1.94-.458 3.49-1.452 3.556-1.492a.458.458 0 0 0 .129-.672.556.556 0 0 0-.732-.118c-.016.01-1.469.94-3.234 1.352l-.038.01C.079 11.985.028 13.64.005 14.345c0 .033 0 .061-.004.09v.01c-.004.187-.008 1.142.199 1.62a.47.47 0 0 0 .202.226C.52 16.362 3.32 18 8.006 18s7.487-1.642 7.603-1.71a.49.49 0 0 0 .203-.225c.195-.476.19-1.43.187-1.617z"/></g></g></svg>