<svg xmlns="http://www.w3.org/2000/svg" width="156" height="147" viewBox="0 0 156 147"><g><g><g><g><path fill="#005695" d="M114.758 46.532h-42.38v-8.447h42.38zm-87.521 0v-8.447h42.38v8.447zm90.264 1.363v-10.41a2.302 2.302 0 0 0-2.289-2.143h-88.43a2.303 2.303 0 0 0-2.288 2.29v79.255a2.29 2.29 0 0 0 2.288 2.29h23.434a1.38 1.38 0 1 0 0-2.762h-22.98V49.294h42.38v12.715a1.38 1.38 0 1 0 2.762 0V49.294h42.38v67.14h-42.38v-12.79a1.38 1.38 0 1 0-2.761 0v12.771H55.72a1.38 1.38 0 1 0 0 2.761h60.4a1.38 1.38 0 0 0 1.381-1.38V47.895z"/></g><g><path fill="#005695" d="M31.124 43.59h28.865a1.38 1.38 0 1 0 0-2.762H31.124a1.38 1.38 0 1 0 0 2.761z"/></g><g><path fill="#005695" d="M67.146 42.227a1.83 1.83 0 0 1-1.834 1.835 1.83 1.83 0 0 1-1.835-1.835 1.83 1.83 0 0 1 1.835-1.835 1.83 1.83 0 0 1 1.834 1.835z"/></g><g><path fill="#005695" d="M76.102 43.59h28.865a1.38 1.38 0 1 0 0-2.762H76.102a1.38 1.38 0 1 0 0 2.761z"/></g><g><path fill="#005695" d="M112.124 42.227a1.83 1.83 0 0 1-1.835 1.835 1.83 1.83 0 0 1-1.834-1.835 1.83 1.83 0 0 1 1.834-1.835 1.83 1.83 0 0 1 1.835 1.835z"/></g><g><path fill="#9ecfef" d="M70.997 99.521a1.38 1.38 0 0 0 1.38-1.38V67.514a1.38 1.38 0 1 0-2.76 0V98.14c0 .763.617 1.38 1.38 1.38z"/></g><g><path fill="#ffc758" d="M56.846 80.284c0 8.538-3.342 15.64-9.264 15.64-5.922 0-9.265-7.211-9.265-15.259 0-8.156 3.089-15.749 9.392-15.749 6.14 0 9.137 7.775 9.137 15.368zm2.217 19.964c-2.053-.527-4.342-1.217-6.504-1.926v-.218c4.814-2.234 8.247-8.392 8.247-18.11 0-11.118-5.104-19.056-13.006-19.056-7.811 0-13.443 7.775-13.443 19.836 0 12.19 5.85 18.784 12.753 19.11.563 0 1.126.291 1.762.564 2.743 1.253 5.813 2.488 8.992 3.633a2.015 2.015 0 0 0 2.634-1.38c.272-1.072-.364-2.18-1.435-2.453z"/></g><g><path fill="#ffc758" d="M89.054 84.68l3.724-10.99c.8-2.325 1.362-4.687 1.925-6.885h.11c.562 2.198 1.126 4.45 1.98 6.94l3.778 10.935zm-1 3.815h13.461l3.506 10.336a2.408 2.408 0 0 0 2.271 1.617h.182a2.391 2.391 0 0 0 2.27-3.161L98.427 64.08a2.426 2.426 0 0 0-2.27-1.617h-2.435a2.391 2.391 0 0 0-2.27 1.617L80.116 97.287c-.526 1.544.636 3.16 2.271 3.16a2.384 2.384 0 0 0 2.27-1.634l3.398-10.3z"/></g><g><path fill="#d2e9f7" d="M153.917 141.881h-9.648c-.897 0-1.795-.65-1.795-1.735 0-.868.673-1.736 1.795-1.736h9.648c.897 0 1.795.651 1.795 1.736-.224 1.084-.898 1.735-1.795 1.735z"/></g><g><path fill="#d2e9f7" d="M149.205 146.437c-.897 0-1.795-.651-1.795-1.736v-9.329c0-.867.673-1.735 1.795-1.735.898 0 1.795.65 1.795 1.735v9.33c-.224 1.084-.897 1.735-1.795 1.735z"/></g><g><path fill="#d2e9f7" d="M18.808 51.565H9.16c-.897 0-1.795-.65-1.795-1.736 0-1.084.673-1.735 1.795-1.735h9.648c.898 0 1.795.65 1.795 1.735s-.897 1.736-1.795 1.736z"/></g><g><path fill="#d2e9f7" d="M13.872 56.12c-.897 0-1.795-.65-1.795-1.735v-9.328c0-.868.673-1.736 1.795-1.736.898 0 1.795.651 1.795 1.736v9.328c0 1.085-.897 1.736-1.795 1.736z"/></g><g><path fill="#d2e9f7" d="M115.58 21.716c-.449 0-.898-.217-1.122-.434a1.663 1.663 0 0 1 0-2.386l6.731-6.509a1.804 1.804 0 0 1 2.468 0c.673.651.673 1.736 0 2.387l-6.731 6.508c-.449.217-.897.434-1.346.434z"/></g><g><path fill="#d2e9f7" d="M122.31 21.716c-.448 0-.897-.217-1.121-.434l-6.731-6.508a1.662 1.662 0 0 1 0-2.387c.673-.65 1.795-.65 2.468 0l6.731 6.509c.673.65.673 1.735 0 2.386-.449.217-.897.434-1.346.434z"/></g><g><path fill="#d2e9f7" d="M53.392 134.926v-3.254h39.04v3.254z"/></g><g><path fill="#d2e9f7" d="M18.808 25.748v-3.254h57.215v3.254z"/></g><g><path fill="#d2e9f7" d="M127.993 111.912v-3.254h8.077v3.254z"/></g><g><path fill="#d2e9f7" d="M0 129.737c0-2.037 1.708-3.688 3.814-3.688 2.107 0 3.815 1.651 3.815 3.688s-1.708 3.688-3.815 3.688c-2.106 0-3.814-1.651-3.814-3.688z"/></g><g><path fill="#d2e9f7" d="M134.988 60.437c0-2.037 1.708-3.688 3.815-3.688 2.106 0 3.814 1.651 3.814 3.688s-1.708 3.688-3.814 3.688c-2.107 0-3.815-1.65-3.815-3.688z"/></g><g opacity=".6"><path fill="#d2e9f7" d="M76.92 8.827c0-2.037 1.708-3.688 3.814-3.688 2.107 0 3.815 1.65 3.815 3.688 0 2.036-1.708 3.688-3.815 3.688-2.106 0-3.814-1.652-3.814-3.688z"/></g><g opacity=".6"><path fill="#d2e9f7" d="M140.26 37.12c0-1.08.905-1.953 2.02-1.953s2.02.874 2.02 1.952c0 1.078-.905 1.953-2.02 1.953s-2.02-.875-2.02-1.953z"/></g><g><path fill="#d2e9f7" d="M5.567 72.392c0-1.079.904-1.953 2.02-1.953 1.115 0 2.019.874 2.019 1.953 0 1.078-.904 1.952-2.02 1.952-1.115 0-2.019-.874-2.019-1.952z"/></g></g><g><g><text fill="#ffc758" style="font-kerning:normal" dominant-baseline="text-before-edge" font-family="'SF UI Display','SFUIDisplay-Light'" font-size="20" font-style="none" font-weight="lighter" transform="translate(0 -4)"><tspan>03</tspan></text></g></g></g></g></svg>