<svg xmlns="http://www.w3.org/2000/svg" width="173" height="151" viewBox="0 0 173 151"><g><g><g><g><path fill="#9ecfef" d="M82.101 58.278s-19.676 1.459-17.587 20.986c2.088 19.527 24.87 13.695 24.87 13.695l7.279-4.756 3.733-10.65-1.075-1.332H82.1z"/></g><g><path fill="#005695" d="M119.587 118.064l-1.447-.123V79.804a1.304 1.304 0 1 0-2.605 0v41.15h-61.31v-75.34h61.31v28.1a1.304 1.304 0 1 0 2.605 0V44.308c0-.72-.583-1.305-1.303-1.305h-8.064l-.188-1.496 17.402 1.49zM105.482 37.7l.666 5.303H63.374zm-40.583.07l11.4.975-11.607 1.462zm-13.28 63.123l-6.968-55.531 6.969-.878zm76.772-59.927a1.302 1.302 0 0 0-.885-.46l-19.253-1.647-.349-2.78a1.304 1.304 0 0 0-1.455-1.131l-17.86 2.25a1.294 1.294 0 0 0-.217-.04l-24.549-2.1a1.316 1.316 0 0 0-1.409 1.189l-.366 4.293-19.014 2.395a1.318 1.318 0 0 0-1.13 1.457l9.706 77.343c.044.353-.032.692.112 1.033.202.478.682.797 1.2.797h63.915c.72 0 1.303-.584 1.303-1.305v-1.7l2.523.216a1.316 1.316 0 0 0 1.408-1.189l6.622-77.669a1.306 1.306 0 0 0-.301-.952z"/></g><g><path fill="#005695" d="M88.961 69.452V54.016a16.643 16.643 0 0 1 8.503 3.134L96.3 58.897c-.363.545-.256 1.3.245 1.722a1.314 1.314 0 0 0 1.923-.274l.994-1.495a16.76 16.76 0 0 1 4.906 10.602zm20.93-19.488h-6.948c-.436 0-.843.218-1.084.581l-2.948 4.43a19.236 19.236 0 0 0-11.252-3.62c-.72 0-1.303.585-1.303 1.306v18.096c0 .72.583 1.305 1.303 1.305h18.063c.72 0 1.302-.584 1.302-1.305 0-5.556-2.344-10.573-6.092-14.114l2.708-4.069h6.25c.72 0 1.303-.584 1.303-1.305s-.583-1.305-1.303-1.305z"/></g><g><path fill="#005695" d="M91.542 82.593a1.3 1.3 0 0 0-1.795-.415 1.306 1.306 0 0 0-.414 1.798l3.346 5.363A16.663 16.663 0 0 1 82.1 93.116c-9.242 0-16.76-7.533-16.76-16.791 0-8.82 6.822-16.073 15.457-16.74v16.74c0 .72.584 1.305 1.303 1.305h16.71a16.741 16.741 0 0 1-4.21 9.867z"/></g><g><path fill="#005695" d="M70.985 100.075H59.87c-.72 0-1.303.584-1.303 1.305s.583 1.305 1.303 1.305h11.115c.72 0 1.303-.584 1.303-1.305 0-.72-.583-1.305-1.303-1.305z"/></g><g><path fill="#ffc758" d="M87.659 100.075H76.543c-.72 0-1.302.584-1.302 1.305s.583 1.305 1.302 1.305H87.66c.72 0 1.302-.584 1.302-1.305 0-.72-.583-1.305-1.302-1.305z"/></g><g><path fill="#ffc758" d="M77.933 107.035H59.87c-.72 0-1.303.584-1.303 1.305s.583 1.305 1.303 1.305h18.063c.719 0 1.302-.584 1.302-1.305 0-.72-.583-1.305-1.302-1.305z"/></g><g><path fill="#005695" d="M87.659 107.035H83.49c-.719 0-1.302.584-1.302 1.305s.583 1.305 1.302 1.305h4.169c.72 0 1.302-.584 1.302-1.305 0-.72-.583-1.305-1.302-1.305z"/></g><g><path fill="#005695" d="M65.427 113.995H59.87c-.72 0-1.303.584-1.303 1.305s.583 1.305 1.303 1.305h5.557c.72 0 1.303-.584 1.303-1.305 0-.72-.583-1.305-1.303-1.305z"/></g><g><path fill="#ffc758" d="M87.659 113.995H70.985c-.719 0-1.302.584-1.302 1.305s.583 1.305 1.302 1.305H87.66c.72 0 1.302-.584 1.302-1.305 0-.72-.583-1.305-1.302-1.305z"/></g><g><path fill="#d2e9f7" d="M171.098 145.765h-10.224c-.95 0-1.901-.691-1.901-1.842 0-.922.713-1.843 1.901-1.843h10.224c.95 0 1.902.691 1.902 1.843-.238 1.151-.951 1.842-1.902 1.842z"/></g><g><path fill="#d2e9f7" d="M166.105 150.601c-.95 0-1.902-.69-1.902-1.842v-9.903c0-.921.713-1.843 1.902-1.843.951 0 1.902.691 1.902 1.843v9.903c-.238 1.151-.95 1.842-1.902 1.842z"/></g><g><path fill="#d2e9f7" d="M27.93 49.887H17.707c-.951 0-1.902-.691-1.902-1.843 0-1.151.713-1.842 1.902-1.842H27.93c.951 0 1.902.69 1.902 1.842 0 1.152-.95 1.843-1.902 1.843z"/></g><g><path fill="#d2e9f7" d="M22.7 54.723c-.952 0-1.903-.69-1.903-1.842v-9.903c0-.921.714-1.843 1.902-1.843.951 0 1.902.691 1.902 1.843v9.903c0 1.151-.95 1.842-1.902 1.842z"/></g><g><path fill="#d2e9f7" d="M130.474 18.2c-.475 0-.951-.23-1.189-.46a1.767 1.767 0 0 1 0-2.534l7.133-6.91c.713-.69 1.902-.69 2.615 0 .713.691.713 1.843 0 2.534l-7.132 6.91c-.476.23-.951.46-1.427.46z"/></g><g><path fill="#d2e9f7" d="M137.607 18.2c-.476 0-.951-.23-1.19-.46l-7.132-6.91a1.767 1.767 0 0 1 0-2.533c.714-.691 1.902-.691 2.616 0l7.132 6.909c.713.69.713 1.842 0 2.533-.475.23-.95.46-1.426.46z"/></g><g><path fill="#d2e9f7" d="M64.577 138.382v-3.455h41.37v3.455z"/></g><g><path fill="#d2e9f7" d="M27.93 22.48v-3.454h60.627v3.455z"/></g><g><path fill="#d2e9f7" d="M132.286 113.95v-3.455h8.56v3.455z"/></g><g><path fill="#d2e9f7" d="M8 132.873c0-2.162 1.81-3.915 4.042-3.915 2.232 0 4.042 1.753 4.042 3.915s-1.81 3.915-4.042 3.915c-2.232 0-4.042-1.753-4.042-3.915z"/></g><g><path fill="#d2e9f7" d="M139.699 70.668c0-2.162 1.81-3.915 4.041-3.915 2.233 0 4.042 1.753 4.042 3.915s-1.81 3.915-4.042 3.915c-2.232 0-4.041-1.753-4.041-3.915z"/></g><g opacity=".6"><path fill="#d2e9f7" d="M89.508 4.516c0-2.162 1.81-3.915 4.042-3.915 2.232 0 4.042 1.753 4.042 3.915 0 2.163-1.81 3.916-4.042 3.916-2.232 0-4.042-1.753-4.042-3.916z"/></g><g opacity=".6"><path fill="#d2e9f7" d="M156.627 34.551c0-1.145.958-2.073 2.14-2.073 1.181 0 2.14.928 2.14 2.073s-.959 2.073-2.14 2.073c-1.182 0-2.14-.928-2.14-2.073z"/></g><g><path fill="#d2e9f7" d="M28.643 71.996c0-1.144.958-2.072 2.14-2.072 1.182 0 2.14.928 2.14 2.072 0 1.145-.958 2.073-2.14 2.073-1.182 0-2.14-.928-2.14-2.073z"/></g></g><g><g><text fill="#ffc758" style="font-kerning:normal" dominant-baseline="text-before-edge" font-family="'SF UI Display','SFUIDisplay-Light'" font-size="20" font-style="none" font-weight="lighter" transform="translate(-1 -2)"><tspan>01</tspan></text></g></g></g></g></svg>