<svg xmlns="http://www.w3.org/2000/svg" width="172" height="157" viewBox="0 0 172 157"><g><g><g><text fill="#ffc758" style="font-kerning:normal" dominant-baseline="text-before-edge" font-family="'SF UI Display','SFUIDisplay-Light'" font-size="20" font-style="none" font-weight="lighter" transform="translate(9 -4)"><tspan>02</tspan></text></g></g><g><g><path fill="#9ecfef" d="M43.6 121.463v-9.427h9.428v9.428z"/></g><g><path fill="#9ecfef" d="M113.13 43.684v-9.428h9.429v9.428z"/></g><g><path fill="#9ecfef" d="M43.6 43.684v-9.428h9.428v9.428z"/></g><g><path fill="#005695" d="M86.433 119.046c.168 0 .305.137.305.305v5.909a.305.305 0 0 1-.305.305h-5.909a.305.305 0 0 1-.305-.305v-5.909c0-.168.137-.305.305-.305zm-34.523.904a.305.305 0 0 1-.305.305h-5.909a.306.306 0 0 1-.305-.305v-5.909c0-.168.137-.305.305-.305h5.91c.167 0 .304.137.304.305zm38.634-16.986H54.019V96a1.485 1.485 0 1 0-2.97 0v7.32a2.617 2.617 0 0 0 2.614 2.613h8.866v9.329a.25.25 0 0 1-.25.25h-7.4v-1.47a3.278 3.278 0 0 0-3.274-3.275h-5.909a3.278 3.278 0 0 0-3.274 3.274v5.91a3.278 3.278 0 0 0 3.274 3.274h5.91a3.278 3.278 0 0 0 3.273-3.275v-1.47h7.4a3.222 3.222 0 0 0 3.219-3.218v-9.329h16.496v10.144h-1.47a3.278 3.278 0 0 0-3.274 3.274v5.909a3.278 3.278 0 0 0 3.274 3.274h5.909a3.278 3.278 0 0 0 3.274-3.274v-5.909a3.278 3.278 0 0 0-3.274-3.274h-1.47v-10.144h5.58a1.485 1.485 0 0 0 0-2.969z"/></g><g><path fill="#005695" d="M90.728 54.623H60.835a1.485 1.485 0 0 0 0 2.969h29.893a1.485 1.485 0 0 0 0-2.97z"/></g><g><path fill="#005695" d="M97.009 54.369c-.82 0-1.485.664-1.485 1.484v.162a1.485 1.485 0 1 0 2.97 0v-.162c0-.82-.665-1.484-1.485-1.484z"/></g><g><path fill="#005695" d="M101.565 54.369c-.82 0-1.485.664-1.485 1.484v.162a1.485 1.485 0 1 0 2.97 0v-.162c0-.82-.665-1.484-1.485-1.484z"/></g><g><path fill="#005695" d="M106.121 54.369c-.82 0-1.484.664-1.484 1.484v.162a1.485 1.485 0 1 0 2.97 0v-.162c0-.82-.666-1.484-1.486-1.484z"/></g><g><path fill="#005695" d="M121.566 41.677a.306.306 0 0 1-.305.305h-5.909a.305.305 0 0 1-.305-.305v-5.909c0-.168.137-.305.305-.305h5.909c.168 0 .305.137.305.305zm-9.614 11.078c.543 0 .986.442.986.986v5.373h-58.92v-5.373c0-.544.443-.986.986-.986zM80.524 36.673a.306.306 0 0 1-.305-.305v-5.909c0-.168.137-.305.305-.305h5.91c.167 0 .304.137.304.305v5.909a.306.306 0 0 1-.305.305zM51.91 41.677a.305.305 0 0 1-.305.305h-5.909a.306.306 0 0 1-.305-.305v-5.909c0-.168.137-.305.305-.305h5.91c.167 0 .304.137.304.305zm69.351-9.183h-5.909a3.278 3.278 0 0 0-3.274 3.275v1.47h-7.4a3.222 3.222 0 0 0-3.219 3.218v9.329H84.963V39.642h1.47a3.278 3.278 0 0 0 3.274-3.274v-5.909a3.278 3.278 0 0 0-3.274-3.274h-5.909a3.278 3.278 0 0 0-3.274 3.274v5.909a3.278 3.278 0 0 0 3.274 3.274h1.47v10.144H65.498v-9.33a3.222 3.222 0 0 0-3.218-3.218h-7.4v-1.47a3.278 3.278 0 0 0-3.275-3.274h-5.909a3.278 3.278 0 0 0-3.274 3.275v5.908a3.278 3.278 0 0 0 3.274 3.275h5.91a3.278 3.278 0 0 0 3.273-3.275v-1.47h7.4a.25.25 0 0 1 .25.25v9.329h-7.525a3.96 3.96 0 0 0-3.955 3.955v36.198a1.485 1.485 0 0 0 2.97 0V62.083h58.919v5.95a1.485 1.485 0 0 0 2.969 0V53.74a3.96 3.96 0 0 0-3.955-3.955h-7.524v-9.33a.25.25 0 0 1 .25-.248h7.4v1.47a3.278 3.278 0 0 0 3.274 3.274h5.909a3.278 3.278 0 0 0 3.274-3.275V35.77a3.278 3.278 0 0 0-3.274-3.275z"/></g><g><path fill="#005695" d="M121.566 119.95a.306.306 0 0 1-.305.305h-5.909a.305.305 0 0 1-.305-.305v-5.909c0-.168.137-.305.305-.305h5.909c.168 0 .305.137.305.305z"/></g><g><path fill="#ffc758" d="M64.711 82.02l5.552-5.552a1.485 1.485 0 0 0-2.1-2.1l-6.601 6.601c-.58.58-.58 1.52 0 2.1l6.601 6.601a1.48 1.48 0 0 0 2.1 0c.58-.58.58-1.52 0-2.1z"/></g><g><path fill="#ffc758" d="M105.395 80.97l-6.601-6.602a1.484 1.484 0 1 0-2.1 2.1l5.552 5.551-5.551 5.551a1.485 1.485 0 0 0 2.099 2.1l6.601-6.601c.58-.58.58-1.52 0-2.1z"/></g><g><path fill="#ffc758" d="M82.095 74.985a1.485 1.485 0 0 0-2.009.61l-6.583 12.326a1.485 1.485 0 0 0 2.62 1.4l6.582-12.326a1.485 1.485 0 0 0-.61-2.01z"/></g><g><path fill="#ffc758" d="M83.059 86.823c-.82 0-1.485.664-1.485 1.484v.15a1.485 1.485 0 0 0 2.97 0v-.15c0-.82-.665-1.484-1.485-1.484z"/></g><g><path fill="#ffc758" d="M87.894 86.823c-.82 0-1.484.664-1.484 1.484v.15a1.485 1.485 0 0 0 2.97 0v-.15c0-.82-.666-1.484-1.486-1.484z"/></g><g><path fill="#ffc758" d="M92.73 86.823c-.82 0-1.485.664-1.485 1.484v.15a1.485 1.485 0 0 0 2.97 0v-.15c0-.82-.665-1.484-1.485-1.484z"/></g><g><path fill="#d2e9f7" d="M169.602 151.56H158.98c-.989 0-1.977-.717-1.977-1.911 0-.956.741-1.911 1.977-1.911h10.622c.989 0 1.977.716 1.977 1.91-.247 1.195-.988 1.911-1.977 1.911z"/></g><g><path fill="#d2e9f7" d="M164.414 156.575c-.988 0-1.976-.716-1.976-1.91v-10.272c0-.955.741-1.91 1.976-1.91.989 0 1.977.716 1.977 1.91v10.271c-.247 1.195-.988 1.911-1.977 1.911z"/></g><g><path fill="#d2e9f7" d="M20.842 52.117H10.219c-.988 0-1.976-.716-1.976-1.91 0-1.195.74-1.912 1.976-1.912h10.623c.988 0 1.976.717 1.976 1.911 0 1.195-.988 1.911-1.976 1.911z"/></g><g><path fill="#d2e9f7" d="M15.407 57.134c-.988 0-1.976-.717-1.976-1.911V44.952c0-.956.74-1.911 1.976-1.911.988 0 1.976.716 1.976 1.91v10.272c0 1.194-.988 1.91-1.976 1.91z"/></g><g><path fill="#d2e9f7" d="M127.392 19.252c-.494 0-.989-.238-1.236-.477a1.83 1.83 0 0 1 0-2.628l7.412-7.166c.74-.717 1.976-.717 2.717 0a1.83 1.83 0 0 1 0 2.628l-7.411 7.166c-.494.239-.988.477-1.482.477z"/></g><g><path fill="#d2e9f7" d="M134.803 19.252c-.494 0-.988-.238-1.235-.477l-7.412-7.166a1.83 1.83 0 0 1 0-2.628c.742-.717 1.977-.717 2.718 0l7.411 7.166a1.83 1.83 0 0 1 0 2.628c-.494.239-.988.477-1.482.477z"/></g><g><path fill="#d2e9f7" d="M58.92 143.902v-3.583h42.986v3.583z"/></g><g><path fill="#d2e9f7" d="M20.842 23.692V20.11h62.995v3.583z"/></g><g><path fill="#d2e9f7" d="M129.274 118.562v-3.583h8.894v3.583z"/></g><g><path fill="#d2e9f7" d="M.133 138.189c0-2.243 1.88-4.061 4.2-4.061 2.32 0 4.2 1.818 4.2 4.06 0 2.243-1.88 4.061-4.2 4.061-2.32 0-4.2-1.818-4.2-4.06z"/></g><g><path fill="#d2e9f7" d="M136.976 73.67c0-2.242 1.88-4.06 4.2-4.06 2.32 0 4.2 1.818 4.2 4.06 0 2.243-1.88 4.061-4.2 4.061-2.32 0-4.2-1.818-4.2-4.06z"/></g><g opacity=".6"><path fill="#d2e9f7" d="M84.826 5.06c0-2.242 1.88-4.06 4.2-4.06 2.319 0 4.199 1.818 4.199 4.06 0 2.243-1.88 4.061-4.2 4.061-2.32 0-4.2-1.818-4.2-4.06z"/></g><g opacity=".6"><path fill="#d2e9f7" d="M154.566 36.212c0-1.187.995-2.15 2.223-2.15 1.228 0 2.224.963 2.224 2.15 0 1.187-.996 2.15-2.224 2.15-1.228 0-2.223-.963-2.223-2.15z"/></g><g><path fill="#d2e9f7" d="M21.583 75.048c0-1.187.995-2.15 2.223-2.15 1.228 0 2.224.963 2.224 2.15 0 1.188-.996 2.15-2.224 2.15-1.228 0-2.223-.962-2.223-2.15z"/></g></g></g></svg>