<svg xmlns="http://www.w3.org/2000/svg" width="166" height="144" viewBox="0 0 166 144"><g><g><g><g><path fill="#9ecfef" d="M56.254 56.05v-7.396h30.641v7.396z"/></g><g><path fill="#005695" d="M98.61 104.476a76.821 76.821 0 0 1-7.41-2.893v-.08a12.038 12.038 0 0 0 6.868-10.85v-5.15c0-6.638-5.381-12.02-12.02-12.02-6.637 0-12.018 5.382-12.018 12.02v5.15a12.037 12.037 0 0 0 6.868 10.85v.08a76.745 76.745 0 0 1-7.41 2.893c-6.253 2.085-6.326 6.59-6.326 6.78v10.302h3.434v-10.255c0-.093.172-2.3 3.977-3.56a73.39 73.39 0 0 0 8.81-3.526c.584-.292.953-.891.949-1.545v-2.316c0-.728-.458-1.376-1.143-1.62a8.595 8.595 0 0 1-5.725-8.083v-5.15a8.585 8.585 0 1 1 17.17 0v5.15a8.595 8.595 0 0 1-5.725 8.084 1.717 1.717 0 0 0-1.143 1.619v2.316a1.717 1.717 0 0 0 .95 1.545 73.37 73.37 0 0 0 8.809 3.518c3.805 1.267 3.976 3.475 3.976 3.522v10.301h3.434v-10.301c0-.19-.072-4.696-6.325-6.78z"/></g><g><path fill="#005695" d="M68.876 73.48c-6.638.002-12.017 5.385-12.015 12.022v5.151a12.037 12.037 0 0 0 6.868 10.85v.08a76.742 76.742 0 0 1-7.41 2.893c-6.254 2.085-6.326 6.59-6.326 6.78v10.302h3.434v-10.255c0-.093.172-2.3 3.976-3.56a73.402 73.402 0 0 0 8.81-3.526c.585-.292.953-.891.95-1.545v-2.316c0-.728-.458-1.376-1.144-1.62a8.595 8.595 0 0 1-5.724-8.083v-5.15a8.586 8.586 0 0 1 12.68-7.555l1.639-3.012a12.019 12.019 0 0 0-5.738-1.456z"/></g><g><path fill="#ffc758" d="M84.332 116.408v-3.434h3.434v3.434z"/></g><g><path fill="#ffc758" d="M91.2 116.408v-3.434h3.434v3.434z"/></g><g><path fill="#ffc758" d="M77.464 116.408v-3.434h3.434v3.434z"/></g><g><path fill="#005695" d="M122.105 121.558v-10.301c0-.19-.072-4.696-6.325-6.78a76.819 76.819 0 0 1-7.41-2.894v-.08a12.038 12.038 0 0 0 6.867-10.85v-4.869a12.02 12.02 0 0 0-1.455-6.024c-3.169-5.832-10.466-7.991-16.298-4.822l1.64 3.017a8.652 8.652 0 0 1 6.096-.813 8.756 8.756 0 0 1 6.583 8.642v4.87a8.595 8.595 0 0 1-5.724 8.083 1.717 1.717 0 0 0-1.144 1.619v2.316a1.717 1.717 0 0 0 .95 1.545 73.38 73.38 0 0 0 8.81 3.518c3.804 1.267 3.976 3.475 3.976 3.522v10.301z"/></g><g><path fill="#005695" d="M118.671 39.145H53.427a8.595 8.595 0 0 0-8.585 8.585V75.2h3.434V47.73a5.15 5.15 0 0 1 5.15-5.151h65.245a5.15 5.15 0 0 1 5.15 5.15v27.472h3.435V47.73a8.595 8.595 0 0 0-8.585-8.585z"/></g><g><path fill="#005695" d="M86.049 54.597H58.578v-3.433h27.47zm1.717-6.867H56.86c-.948 0-1.717.768-1.717 1.717v6.867c0 .949.769 1.718 1.717 1.718h30.905c.948 0 1.717-.77 1.717-1.717v-6.868c0-.949-.769-1.717-1.717-1.717z"/></g><g><path fill="#ffc758" d="M92.917 51.163V47.73h3.434v3.433z"/></g><g><path fill="#ffc758" d="M99.784 51.163V47.73h3.434v3.433z"/></g><g><path fill="#005695" d="M92.917 58.031v-3.434h24.037v3.434z"/></g><g><path fill="#005695" d="M72.334 63.182a1.58 1.58 0 0 1-1.738-1.717h-3.434a5.006 5.006 0 0 0 5.15 5.15H86.05v.001-3.434H72.334z"/></g><g><path fill="#005695" d="M104.935 61.465h-3.434a1.573 1.573 0 0 1-1.717 1.717H86.05c-.948 0-1.717.769-1.717 1.717v5.151h3.434v-3.434h12.018a5.007 5.007 0 0 0 5.15-5.151z"/></g><g><path fill="#d2e9f7" d="M163.94 139.032h-9.524c-.886 0-1.772-.642-1.772-1.713 0-.857.665-1.713 1.772-1.713h9.524c.886 0 1.772.642 1.772 1.713-.222 1.07-.886 1.713-1.772 1.713z"/></g><g><path fill="#d2e9f7" d="M159.289 143.53c-.886 0-1.772-.643-1.772-1.714v-9.209c0-.856.664-1.713 1.772-1.713.886 0 1.772.642 1.772 1.713v9.21c-.222 1.07-.886 1.712-1.772 1.712z"/></g><g><path fill="#d2e9f7" d="M30.567 49.876h-9.524c-.886 0-1.772-.642-1.772-1.713 0-1.071.664-1.713 1.772-1.713h9.524c.886 0 1.772.642 1.772 1.713 0 1.07-.886 1.713-1.772 1.713z"/></g><g><path fill="#d2e9f7" d="M25.694 54.373c-.886 0-1.772-.642-1.772-1.713v-9.209c0-.856.664-1.713 1.772-1.713.886 0 1.772.643 1.772 1.713v9.21c0 1.07-.886 1.712-1.772 1.712z"/></g><g><path fill="#d2e9f7" d="M126.095 20.41c-.443 0-.886-.214-1.107-.428a1.641 1.641 0 0 1 0-2.356l6.645-6.424a1.78 1.78 0 0 1 2.436 0 1.641 1.641 0 0 1 0 2.355l-6.645 6.425c-.443.214-.886.429-1.329.429z"/></g><g><path fill="#d2e9f7" d="M132.74 20.41c-.443 0-.886-.214-1.107-.428l-6.645-6.425a1.641 1.641 0 0 1 0-2.355 1.78 1.78 0 0 1 2.436 0l6.645 6.424a1.641 1.641 0 0 1 0 2.356c-.443.214-.886.429-1.329.429z"/></g><g><path fill="#d2e9f7" d="M64.707 132.167v-3.213h38.539v3.213z"/></g><g><path fill="#d2e9f7" d="M30.567 24.391V21.18h56.48v3.212z"/></g><g><path fill="#d2e9f7" d="M127.783 109.448v-3.212h7.974v3.212z"/></g><g><path fill="#d2e9f7" d="M12 127.044c0-2.01 1.686-3.64 3.765-3.64 2.08 0 3.766 1.63 3.766 3.64 0 2.01-1.686 3.64-3.766 3.64S12 129.055 12 127.045z"/></g><g><path fill="#d2e9f7" d="M134.689 69.2c0-2.01 1.686-3.64 3.765-3.64 2.08 0 3.765 1.63 3.765 3.64 0 2.01-1.685 3.64-3.765 3.64s-3.765-1.63-3.765-3.64z"/></g><g opacity=".6"><path fill="#d2e9f7" d="M87.932 7.687c0-2.011 1.686-3.641 3.765-3.641 2.08 0 3.766 1.63 3.766 3.64 0 2.011-1.686 3.641-3.766 3.641-2.079 0-3.765-1.63-3.765-3.64z"/></g><g opacity=".6"><path fill="#d2e9f7" d="M150.459 35.616c0-1.065.892-1.928 1.993-1.928s1.994.863 1.994 1.928c0 1.064-.893 1.927-1.994 1.927-1.1 0-1.993-.863-1.993-1.927z"/></g><g><path fill="#d2e9f7" d="M31.231 70.435c0-1.064.893-1.927 1.993-1.927 1.101 0 1.994.863 1.994 1.927 0 1.065-.893 1.928-1.994 1.928-1.1 0-1.993-.863-1.993-1.928z"/></g></g><g><g><text fill="#ffc758" style="font-kerning:normal" dominant-baseline="text-before-edge" font-family="'SF UI Display','SFUIDisplay-Light'" font-size="20" font-style="none" font-weight="lighter" transform="translate(0 -4)"><tspan>04</tspan></text></g></g></g></g></svg>