<svg xmlns="http://www.w3.org/2000/svg" width="295" height="202" viewBox="0 0 295 202"><g><g><g><path fill="#d2e9f7" d="M193.554 25.825L85.8 24.6a5.2 5.2 0 0 0-5.2 5.2v140.4a5.2 5.2 0 0 0 5.2 5.2h104a5.2 5.2 0 0 0 5.2-5.2v-15.6z"/></g><g><path fill="#9ecfef" d="M104 40.2h67.6v10.4H104z"/></g><g><path fill="#9ecfef" d="M130 145.5c0 10.77-8.73 19.5-19.5 19.5S91 156.27 91 145.5s8.73-19.5 19.5-19.5 19.5 8.73 19.5 19.5z"/></g><g><path fill="#9ecfef" d="M209.056 75.108l13.51 7.8-23.4 40.53-13.51-7.8z"/></g><g><path fill="#d2e9f7" d="M199.16 123.452l-13.52-7.8-5.538 14.795 8.996 5.2z"/></g><g><path fill="#9ecfef" d="M180.504 130.918l9.048 5.2-2.6 4.525a5.218 5.218 0 1 1-9.048-5.2z"/></g><g><path fill="#d2e9f7" d="M216.833 61.61l13.51 7.8-7.8 13.51-13.51-7.8z"/></g><g><path fill="#9ecfef" d="M228.789 56.503a5.2 5.2 0 0 1 1.902 7.103l-2.6 4.504-9.006-5.2 2.6-4.504a5.2 5.2 0 0 1 7.104-1.903z"/></g><g><g><path fill="#005695" d="M221.806 79.487l-8.996-5.2 5.2-8.996 8.996 5.2zm-23.4 40.533l-8.996-5.2 20.8-36.035 8.996 5.2zM179.842 139a2.599 2.599 0 0 1 0-2.6l1.3-2.261 4.524 2.6-1.3 2.235a2.6 2.6 0 0 1-2.6 1.248m6.734-7.93l-1.3-.753-3.848-2.237 3.692-9.88 8.19 4.732zm3.9 37.908a2.6 2.6 0 0 1-2.6 2.6h-104a2.6 2.6 0 0 1-2.6-2.6V29.8a2.6 2.6 0 0 1 2.6-2.6h104a2.6 2.6 0 0 1 2.6 2.6v68.952l-8.996 15.6v.39l-5.46 14.587-2.705 4.47a7.803 7.803 0 0 0 .417 8.4l-5.85 7.2-1.638-4.106a5.198 5.198 0 0 0-4.368-3.146 5.198 5.198 0 0 0-4.888 2.6l-.937 1.586-.883-10.4a5.2 5.2 0 0 0-10.115-1.223l-6.396 19.19a2.6 2.6 0 0 0 1.64 3.275c.256.054.52.063.779.025a2.6 2.6 0 0 0 2.47-1.767l6.37-19.188.91 10.555a5.2 5.2 0 0 0 9.646 2.237l.962-1.587 1.612 4.083a5.199 5.199 0 0 0 8.892 1.325l6.058-7.8a8.02 8.02 0 0 0 2.054.287 7.8 7.8 0 0 0 6.786-3.745l2.6-4.342 1.144-1.377zm31.537-110.5a2.6 2.6 0 0 1 1.587-1.221 2.73 2.73 0 0 1 1.976.26 2.602 2.602 0 0 1 1.222 1.586 2.73 2.73 0 0 1-.26 1.975l-1.3 2.262-4.525-2.6zm9.802-.728a7.798 7.798 0 0 0-3.64-4.731 7.802 7.802 0 0 0-5.927-.78 7.802 7.802 0 0 0-4.732 3.639l-1.3 2.262a2.6 2.6 0 0 0-3.536.937L208 71.556l-2.263-1.3a2.603 2.603 0 0 0-3.562.962 2.6 2.6 0 0 0 .962 3.536l2.263 1.3-7.8 13.677V29.8a7.8 7.8 0 0 0-7.8-7.8h-104a7.8 7.8 0 0 0-7.8 7.8v140.4a7.8 7.8 0 0 0 7.8 7.8h104a7.8 7.8 0 0 0 7.8-7.8v-40.767l3.562-4.342.182-.235L223.6 86.454l2.262 1.3a2.599 2.599 0 0 1 1.221 1.587c.18.666.087 1.377-.259 1.975l-10.4 18.019a2.597 2.597 0 0 0 .832 3.665 2.598 2.598 0 0 0 3.562-.961l10.4-18.019a7.796 7.796 0 0 0-2.86-10.66l-2.262-1.3 6.5-11.258a2.6 2.6 0 0 0-.936-3.536l1.3-2.262a7.797 7.797 0 0 0 .78-6.032z"/></g><g><path fill="#005695" d="M119.027 138.506l-9.203 9.179-5.512-5.512a2.6 2.6 0 1 0-3.666 3.691l5.512 5.513a5.198 5.198 0 0 0 3.666 1.508 5.201 5.201 0 0 0 3.692-1.508l9.178-9.204a2.6 2.6 0 0 0-3.667-3.667z"/></g><g><path fill="#005695" d="M110.5 162.4c-9.334 0-16.9-7.567-16.9-16.9 0-9.334 7.566-16.9 16.9-16.9 9.333 0 16.9 7.566 16.9 16.9-.014 9.328-7.573 16.886-16.9 16.9zm0-39c-12.205 0-22.1 9.895-22.1 22.1 0 12.206 9.895 22.1 22.1 22.1 12.205 0 22.1-9.894 22.1-22.1-.014-12.2-9.901-22.085-22.1-22.1z"/></g><g><path fill="#005695" d="M106.6 42.8H169V48h-62.4zM104 53.2h67.6a2.6 2.6 0 0 0 2.6-2.6V40.2a2.6 2.6 0 0 0-2.6-2.6H104a2.6 2.6 0 0 0-2.6 2.6v10.4a2.6 2.6 0 0 0 2.6 2.6z"/></g><g><path fill="#005695" d="M166.4 61a2.6 2.6 0 0 0-2.6-2.6h-52a2.6 2.6 0 0 0 0 5.2h52a2.6 2.6 0 0 0 2.6-2.6z"/></g><g><path fill="#005695" d="M119.6 79.2a2.6 2.6 0 0 0 2.6 2.6h57.2a2.6 2.6 0 1 0 0-5.2h-57.2a2.6 2.6 0 0 0-2.6 2.6z"/></g><g><path fill="#005695" d="M98.8 97.4h52a2.6 2.6 0 1 0 0-5.2h-52a2.6 2.6 0 0 0 0 5.2z"/></g><g><path fill="#005695" d="M179.4 92.2h-18.2a2.6 2.6 0 0 0 0 5.2h18.2a2.6 2.6 0 1 0 0-5.2z"/></g><g><path fill="#005695" d="M98.8 110.4h26a2.6 2.6 0 1 0 0-5.2h-26a2.6 2.6 0 0 0 0 5.2z"/></g><g><path fill="#005695" d="M156 107.8a2.6 2.6 0 0 0-2.6-2.6h-18.2a2.6 2.6 0 0 0 0 5.2h18.2a2.6 2.6 0 0 0 2.6-2.6z"/></g></g><g><g><path fill="#9ecfef" d="M284.312 112.105h-46.095c-.647 0-1.294-.486-1.294-1.294 0-.809.485-1.294 1.294-1.294h46.095c.647 0 1.294.485 1.294 1.294 0 .808-.647 1.294-1.294 1.294z"/></g><g><path fill="#9ecfef" d="M215.66 131.105h-6.954c-.647 0-1.294-.486-1.294-1.294 0-.809.485-1.294 1.294-1.294h6.955c.647 0 1.294.485 1.294 1.294 0 .808-.647 1.294-1.294 1.294z"/></g><g><path fill="#9ecfef" d="M212.264 134.501c-.647 0-1.294-.485-1.294-1.294v-6.955c0-.646.486-1.293 1.294-1.293.647 0 1.294.485 1.294 1.293v6.955c-.162.809-.647 1.294-1.294 1.294z"/></g><g><path fill="#9ecfef" d="M115.093 13.01h-6.955c-.647 0-1.294-.485-1.294-1.294 0-.647.485-1.294 1.294-1.294h6.955c.647 0 1.294.485 1.294 1.294-.162.647-.647 1.294-1.294 1.294z"/></g><g><path fill="#9ecfef" d="M111.535 16.406c-.647 0-1.294-.485-1.294-1.294V8.158c0-.647.485-1.294 1.294-1.294.646 0 1.293.485 1.293 1.294v6.954c0 .81-.485 1.294-1.293 1.294z"/></g><g><path fill="#9ecfef" d="M286.635 133.037h-6.955c-.646 0-1.293-.485-1.293-1.293 0-.647.485-1.294 1.293-1.294h6.955c.647 0 1.294.485 1.294 1.294 0 .647-.647 1.293-1.294 1.293z"/></g><g><path fill="#9ecfef" d="M283.239 136.434c-.647 0-1.294-.485-1.294-1.294v-6.955c0-.647.485-1.294 1.294-1.294.647 0 1.294.486 1.294 1.294v6.955c-.162.809-.647 1.294-1.294 1.294z"/></g><g><path fill="#9ecfef" d="M68.712 144.83c-.323 0-.647-.161-.809-.323l-4.852-4.852a1.27 1.27 0 0 1 0-1.78 1.27 1.27 0 0 1 1.78 0l4.851 4.853a1.27 1.27 0 0 1 0 1.779c-.323.162-.646.323-.97.323z"/></g><g><path fill="#9ecfef" d="M63.86 144.83c-.324 0-.647-.161-.809-.323a1.27 1.27 0 0 1 0-1.78l4.852-4.851a1.27 1.27 0 0 1 1.78 0 1.27 1.27 0 0 1 0 1.779l-4.853 4.852c-.485.162-.647.323-.97.323z"/></g><g><path fill="#9ecfef" d="M43.708 64.947c-.323 0-.647-.162-.809-.324a1.27 1.27 0 0 1 0-1.779l4.852-4.852a1.27 1.27 0 0 1 1.78 0 1.27 1.27 0 0 1 0 1.78l-4.853 4.851c-.323.162-.646.324-.97.324z"/></g><g><path fill="#9ecfef" d="M48.56 64.947c-.323 0-.647-.162-.809-.324L42.9 59.771a1.27 1.27 0 0 1 0-1.779 1.27 1.27 0 0 1 1.78 0l4.852 4.852a1.27 1.27 0 0 1 0 1.78c-.324.161-.647.323-.97.323z"/></g><g><path fill="#9ecfef" d="M244.907 26.292c-.323 0-.647-.162-.808-.324a1.27 1.27 0 0 1 0-1.779l4.852-4.852a1.27 1.27 0 0 1 1.779 0 1.27 1.27 0 0 1 0 1.78l-4.852 4.851c-.324.162-.647.324-.97.324z"/></g><g><path fill="#9ecfef" d="M249.76 26.292c-.324 0-.648-.162-.81-.324l-4.851-4.852a1.27 1.27 0 0 1 0-1.779 1.27 1.27 0 0 1 1.779 0l4.852 4.852a1.27 1.27 0 0 1 0 1.78c-.324.161-.647.323-.97.323z"/></g><g><path fill="#9ecfef" d="M266.418 72.387c-.323 0-.647-.162-.809-.324a1.27 1.27 0 0 1 0-1.779l4.853-4.852a1.27 1.27 0 0 1 1.779 0 1.27 1.27 0 0 1 0 1.779l-4.852 4.852c-.324.162-.647.324-.97.324z"/></g><g><path fill="#9ecfef" d="M271.432 72.387c-.324 0-.647-.162-.809-.324l-4.852-4.852a1.27 1.27 0 0 1 0-1.78 1.27 1.27 0 0 1 1.78.001l4.851 4.852a1.27 1.27 0 0 1 0 1.78c-.485.16-.647.323-.97.323z"/></g><g><path fill="#9ecfef" d="M162.836 201.738c-.323 0-.647-.162-.808-.324a1.27 1.27 0 0 1 0-1.779l4.852-4.852a1.27 1.27 0 0 1 1.779 0 1.27 1.27 0 0 1 0 1.78l-4.852 4.851c-.486.324-.647.324-.97.324z"/></g><g><path fill="#9ecfef" d="M167.688 201.738c-.323 0-.647-.162-.808-.324l-4.852-4.852a1.27 1.27 0 0 1 0-1.779 1.27 1.27 0 0 1 1.779 0l4.852 4.852a1.27 1.27 0 0 1 0 1.78c-.324.323-.647.323-.97.323z"/></g><g><path fill="#9ecfef" d="M43.093 109.52H1.688c-.647 0-1.132-.485-1.132-1.293 0-.647.485-1.294 1.294-1.294h41.243c.647 0 1.294.485 1.294 1.294-.162.808-.647 1.294-1.294 1.294z"/></g><g><path fill="#9ecfef" d="M70.495 41.01H19.387c-.647 0-1.294-.485-1.294-1.132 0-.647.485-1.294 1.294-1.294h51.27c.647 0 1.294.485 1.294 1.294-.162.485-.809 1.132-1.456 1.132z"/></g><g><path fill="#9ecfef" d="M293.702 52.89h-49.976c-.647 0-1.294-.486-1.294-1.294 0-.647.485-1.294 1.294-1.294h49.976c.647 0 1.294.485 1.294 1.294 0 .808-.485 1.294-1.294 1.294z"/></g><g><path fill="#9ecfef" d="M212.728 39.01h-7.764c-.646 0-1.293-.485-1.293-1.132 0-.647.485-1.294 1.293-1.294h7.764c.647 0 1.294.485 1.294 1.294 0 .485-.486 1.132-1.294 1.132z"/></g><g><path fill="#9ecfef" d="M60.525 6.78L63.598 5l3.073 1.78v3.557l-3.073 1.78-3.073-1.78z"/></g><g><path fill="#9ecfef" d="M52.19 194.844l3.072-1.779 3.073 1.78v3.557l-3.073 1.78-3.073-1.78z"/></g><g><path fill="#9ecfef" d="M238.927 169.984l3.073-1.779 3.073 1.78v3.557l-3.073 1.78-3.073-1.78z"/></g><g><path fill="#9ecfef" d="M185.52 3.057l4.206-2.426 4.043 2.426v4.69l-4.043 2.427-4.205-2.426z"/></g></g></g></g></svg>