<svg xmlns="http://www.w3.org/2000/svg" width="295" height="202" viewBox="0 0 295 202"><g><g><g><g><path fill="#9ecfef" d="M284.312 112.105h-46.095c-.647 0-1.294-.486-1.294-1.294 0-.809.485-1.294 1.294-1.294h46.095c.647 0 1.294.485 1.294 1.294 0 .808-.647 1.294-1.294 1.294z"/></g><g><path fill="#9ecfef" d="M115.093 13.01h-6.955c-.647 0-1.294-.485-1.294-1.294 0-.647.485-1.294 1.294-1.294h6.955c.647 0 1.294.485 1.294 1.294-.162.647-.647 1.294-1.294 1.294z"/></g><g><path fill="#9ecfef" d="M111.535 16.406c-.647 0-1.294-.485-1.294-1.294V8.158c0-.647.485-1.294 1.294-1.294.646 0 1.293.485 1.293 1.294v6.954c0 .81-.485 1.294-1.293 1.294z"/></g><g><path fill="#9ecfef" d="M286.635 133.037h-6.955c-.646 0-1.293-.485-1.293-1.293 0-.647.485-1.294 1.293-1.294h6.955c.647 0 1.294.485 1.294 1.294 0 .647-.647 1.293-1.294 1.293z"/></g><g><path fill="#9ecfef" d="M283.239 136.434c-.647 0-1.294-.485-1.294-1.294v-6.955c0-.647.485-1.294 1.294-1.294.647 0 1.294.486 1.294 1.294v6.955c-.162.809-.647 1.294-1.294 1.294z"/></g><g><path fill="#9ecfef" d="M68.712 144.83c-.323 0-.647-.161-.809-.323l-4.852-4.852a1.27 1.27 0 0 1 0-1.78 1.27 1.27 0 0 1 1.78 0l4.851 4.853a1.27 1.27 0 0 1 0 1.779c-.323.162-.646.323-.97.323z"/></g><g><path fill="#9ecfef" d="M63.86 144.83c-.324 0-.647-.161-.809-.323a1.27 1.27 0 0 1 0-1.78l4.852-4.851a1.27 1.27 0 0 1 1.78 0 1.27 1.27 0 0 1 0 1.779l-4.853 4.852c-.485.162-.647.323-.97.323z"/></g><g><path fill="#9ecfef" d="M43.708 64.947c-.323 0-.647-.162-.809-.324a1.27 1.27 0 0 1 0-1.779l4.852-4.852a1.27 1.27 0 0 1 1.78 0 1.27 1.27 0 0 1 0 1.78l-4.853 4.851c-.323.162-.646.324-.97.324z"/></g><g><path fill="#9ecfef" d="M48.56 64.947c-.323 0-.647-.162-.809-.324L42.9 59.771a1.27 1.27 0 0 1 0-1.779 1.27 1.27 0 0 1 1.78 0l4.852 4.852a1.27 1.27 0 0 1 0 1.78c-.324.161-.647.323-.97.323z"/></g><g><path fill="#9ecfef" d="M244.907 26.292c-.323 0-.647-.162-.808-.324a1.27 1.27 0 0 1 0-1.779l4.852-4.852a1.27 1.27 0 0 1 1.779 0 1.27 1.27 0 0 1 0 1.78l-4.852 4.851c-.324.162-.647.324-.97.324z"/></g><g><path fill="#9ecfef" d="M249.76 26.292c-.324 0-.648-.162-.81-.324l-4.851-4.852a1.27 1.27 0 0 1 0-1.779 1.27 1.27 0 0 1 1.779 0l4.852 4.852a1.27 1.27 0 0 1 0 1.78c-.324.161-.647.323-.97.323z"/></g><g><path fill="#9ecfef" d="M266.418 72.387c-.323 0-.647-.162-.809-.324a1.27 1.27 0 0 1 0-1.779l4.853-4.852a1.27 1.27 0 0 1 1.779 0 1.27 1.27 0 0 1 0 1.779l-4.852 4.852c-.324.162-.647.324-.97.324z"/></g><g><path fill="#9ecfef" d="M271.432 72.387c-.324 0-.647-.162-.809-.324l-4.852-4.852a1.27 1.27 0 0 1 0-1.78 1.27 1.27 0 0 1 1.78.001l4.851 4.852a1.27 1.27 0 0 1 0 1.78c-.485.16-.647.323-.97.323z"/></g><g><path fill="#9ecfef" d="M162.836 201.738c-.323 0-.647-.162-.808-.324a1.27 1.27 0 0 1 0-1.779l4.852-4.852a1.27 1.27 0 0 1 1.779 0 1.27 1.27 0 0 1 0 1.78l-4.852 4.851c-.486.324-.647.324-.97.324z"/></g><g><path fill="#9ecfef" d="M167.688 201.738c-.323 0-.647-.162-.808-.324l-4.852-4.852a1.27 1.27 0 0 1 0-1.779 1.27 1.27 0 0 1 1.779 0l4.852 4.852a1.27 1.27 0 0 1 0 1.78c-.324.323-.647.323-.97.323z"/></g><g><path fill="#9ecfef" d="M43.093 109.52H1.688c-.647 0-1.132-.485-1.132-1.293 0-.647.485-1.294 1.294-1.294h41.243c.647 0 1.294.485 1.294 1.294-.162.808-.647 1.294-1.294 1.294z"/></g><g><path fill="#9ecfef" d="M70.495 41.01H19.387c-.647 0-1.294-.485-1.294-1.132 0-.647.485-1.294 1.294-1.294h51.27c.647 0 1.294.485 1.294 1.294-.162.485-.809 1.132-1.456 1.132z"/></g><g><path fill="#9ecfef" d="M293.702 52.89h-49.976c-.647 0-1.294-.486-1.294-1.294 0-.647.485-1.294 1.294-1.294h49.976c.647 0 1.294.485 1.294 1.294 0 .808-.485 1.294-1.294 1.294z"/></g><g><path fill="#9ecfef" d="M212.728 39.01h-7.764c-.646 0-1.293-.485-1.293-1.132 0-.647.485-1.294 1.293-1.294h7.764c.647 0 1.294.485 1.294 1.294 0 .485-.486 1.132-1.294 1.132z"/></g><g><path fill="#9ecfef" d="M60.525 6.78L63.598 5l3.073 1.78v3.557l-3.073 1.78-3.073-1.78z"/></g><g><path fill="#9ecfef" d="M52.19 194.844l3.072-1.779 3.073 1.78v3.557l-3.073 1.78-3.073-1.78z"/></g><g><path fill="#9ecfef" d="M238.927 169.984l3.073-1.779 3.073 1.78v3.557l-3.073 1.78-3.073-1.78z"/></g><g><path fill="#9ecfef" d="M185.52 3.057l4.206-2.426 4.043 2.426v4.69l-4.043 2.427-4.205-2.426z"/></g></g></g><g><g><path fill="#9ecfef" d="M86.666 90.33h10.133v40.531H86.666c-5.596 0-10.133-4.537-10.133-10.132v-20.266c0-5.596 4.537-10.133 10.133-10.133z"/></g><g><path fill="#9ecfef" d="M101.865 82.73a5.067 5.067 0 0 1 5.067 5.067v45.598a5.067 5.067 0 0 1-10.133 0V87.797a5.067 5.067 0 0 1 5.066-5.066z"/></g><g><path fill="#9ecfef" d="M198.127 138.461a5.067 5.067 0 0 1-5.066-5.066V87.797a5.067 5.067 0 0 1 10.133 0v45.598a5.067 5.067 0 0 1-5.067 5.066z"/></g><g><path fill="#9ecfef" d="M84.133 90.33h10.133c0-27.981 22.682-50.664 50.664-50.664h10.133c27.981 0 50.664 22.683 50.664 50.664h10.133c0-33.577-27.22-60.797-60.797-60.797H144.93c-33.578 0-60.797 27.22-60.797 60.797z"/></g><g><path fill="#9ecfef" d="M160.129 161.26h5.066a7.6 7.6 0 0 1 0 15.2h-5.066a7.6 7.6 0 0 1 0-15.2z"/></g><g><path fill="#d2e9f7" d="M192.008 99.884c-.956-10.2-.514-6.458-7.968-19.442-4.15-7.232-21.037-16.981-35.22-16.574-10.84.31-10.04-.319-17.165 5.41-16.084 7.85-25.381 25.072-23.118 42.827 2.264 17.753 15.585 32.092 33.125 35.653 17.54 3.562 35.399-4.446 44.407-19.911-5.707 2.809 4.983-5.333 5.939-27.963z"/></g><g><path fill="#9ecfef" d="M221.65 95.422l-8.324-5.092h-10.133v40.531h10.133c5.596 0 10.133-4.537 10.133-10.132.103-9.21-1.809-19.711-1.809-25.307z"/></g><g><g><path fill="#005695" d="M220.926 120.729a7.6 7.6 0 0 1-7.6 7.6h-7.6V92.862h7.6a7.6 7.6 0 0 1 7.6 7.6zm-20.266 12.666a2.533 2.533 0 0 1-5.066 0V87.797a2.533 2.533 0 0 1 5.066 0zm-50.664 12.666c-22.384 0-40.531-18.147-40.531-40.532 0-22.384 18.147-40.53 40.531-40.53 22.385 0 40.531 18.146 40.531 40.53 0 22.385-18.146 40.532-40.53 40.532zm-45.598-12.666a2.533 2.533 0 0 1-5.066 0V87.797a2.533 2.533 0 0 1 5.066 0zm-17.732-5.067a7.6 7.6 0 0 1-7.6-7.6v-20.265a7.6 7.6 0 0 1 7.6-7.6h7.6v35.465zm104.241-42.786zm-40.91-25.462a45.595 45.595 0 0 0-40.912 25.462 7.6 7.6 0 0 0-7.22-5.345 7.455 7.455 0 0 0-4.205 1.292c4.254-22.762 24.113-39.27 47.27-39.29h10.133c23.156.02 43.016 16.528 47.27 39.29a7.455 7.455 0 0 0-4.206-1.292 7.6 7.6 0 0 0-7.22 5.345 45.595 45.595 0 0 0-40.91-25.462zm5.066-28.014c31.214-.03 56.906 24.546 58.263 55.73h-5.066c-1.353-28.385-24.78-50.696-53.197-50.663H144.93C116.512 37.1 93.085 59.41 91.732 87.797h-5.066c1.357-31.185 27.049-55.76 58.264-55.73zm10.132 141.86h-5.066a5.067 5.067 0 0 1 0-10.133h5.066a5.067 5.067 0 0 1 0 10.133zm53.198-85.065c-.798-34.402-28.92-61.87-63.33-61.861H144.93c-34.411-.009-62.532 27.46-63.33 61.86a12.666 12.666 0 0 0-7.6 11.603v20.265c0 6.995 5.671 12.666 12.666 12.666h7.6a7.6 7.6 0 0 0 15.199 0v-7.067a45.598 45.598 0 0 0 81.062 0v7.067a7.6 7.6 0 0 0 15.2 0h2.533c-1.246 17.801-15.522 31.906-33.337 32.932a10.132 10.132 0 0 0-9.728-7.6h-5.066c-5.596 0-10.133 4.538-10.133 10.133 0 5.596 4.537 10.133 10.133 10.133h5.066a10.134 10.134 0 0 0 9.804-7.6c20.578-1.082 37.068-17.43 38.327-37.998 6.995 0 12.666-5.67 12.666-12.666v-20.265a12.666 12.666 0 0 0-7.6-11.602z"/></g></g></g></g></svg>