<svg xmlns="http://www.w3.org/2000/svg" width="35" height="27" viewBox="0 0 35 27"><g><g><path fill="#005695" d="M30.012 6.737a4.805 4.805 0 0 0-1.018 3.26c.27 4.969-1.166 8.821-4.268 11.451-3.624 3.072-9.469 4.278-16.036 3.308-1.19-.175-2.418-.568-3.435-.96 2.06-.668 3.652-1.263 6.223-2.408l3.588-1.6-3.962-.238c-1.898-.114-3.478-.98-4.449-2.385a7.51 7.51 0 0 0 1.508-.237l3.779-.99-3.81-.879c-1.852-.427-2.907-1.47-3.466-2.27a5.32 5.32 0 0 1-.751-1.56c.382.097.827.166 1.545.233l3.527.328-2.794-2.052C4.179 8.26 3.373 6.04 3.964 3.905c6.283 6.134 13.66 5.673 14.403 5.835-.164-1.494-.168-1.498-.21-1.64-.952-3.164 1.132-4.771 2.072-5.315 1.964-1.136 5.08-1.307 7.239.564a1.92 1.92 0 0 0 1.687.425c.53-.124.964-.255 1.39-.398l-.886 2.382h1.13l-.777.98zM35 3.607zm-2.407.108L33.9.204s-4.077 1.412-5.11 1.664c-2.715-2.296-6.75-2.398-9.635-.729-2.362 1.367-3.63 3.715-3.207 6.459-4.597-.601-8.471-2.652-11.53-6.11L3.45.393l-.722 1.25c-.914 1.578-1.217 3.383-.855 5.082.149.697.402 1.362.752 1.984l-.83-.302-.098 1.305c-.1 1.325.369 2.873 1.254 4.14.25.356.57.747.977 1.133l-.428-.061.523 1.495a7.42 7.42 0 0 0 3.97 4.33c-1.852.74-3.347 1.211-5.805 1.973l-2.25.696 2.078 1.069c.792.407 3.59 1.769 6.356 2.177 6.147.908 13.068.169 17.727-3.781 3.925-3.327 5.213-8.06 4.945-12.985-.04-.746.177-1.457.611-2.003A688.574 688.574 0 0 0 35 3.608c-2.206.095-2.158.088-2.407.107z"/></g></g></svg>