<svg xmlns="http://www.w3.org/2000/svg" width="22" height="17" viewBox="0 0 22 17"><g><g><path fill="#313131" d="M18.797 4.228a3.015 3.015 0 0 0-.639 2.045c.17 3.118-.732 5.535-2.678 7.185-2.274 1.928-5.942 2.684-10.062 2.076-.746-.11-1.518-.357-2.156-.603 1.293-.419 2.292-.792 3.905-1.51l2.251-1.004-2.486-.15c-1.19-.071-2.182-.615-2.791-1.497.323-.017.635-.067.946-.148L7.457 10l-2.39-.55c-1.161-.269-1.824-.923-2.174-1.425a3.339 3.339 0 0 1-.472-.979c.24.06.52.104.97.146l2.213.206L3.85 6.111C2.587 5.183 2.08 3.79 2.452 2.45c3.943 3.848 8.572 3.56 9.037 3.66-.102-.937-.105-.939-.132-1.028-.596-1.986.711-2.994 1.301-3.335 1.232-.713 3.188-.82 4.542.354.293.253.688.353 1.059.266.332-.077.605-.16.872-.25l-.556 1.495h.71l-.488.615zm3.13-1.964zm-1.51.067l.819-2.203s-2.559.886-3.207 1.044c-1.703-1.44-4.235-1.504-6.045-.457-1.483.858-2.278 2.33-2.013 4.052C7.086 4.391 4.656 3.103 2.737.933L2.13.247l-.454.784c-.573.99-.763 2.123-.536 3.19.094.437.252.854.472 1.245l-.52-.19-.062.819c-.063.831.231 1.802.787 2.597.156.224.358.47.613.712l-.27-.04.33.94a4.656 4.656 0 0 0 2.49 2.716c-1.161.464-2.1.76-3.642 1.238l-1.412.437 1.304.67c.497.256 2.253 1.11 3.988 1.367 3.857.57 8.2.106 11.124-2.373 2.462-2.088 3.27-5.057 3.102-8.148a1.85 1.85 0 0 1 .384-1.257c.545-.685 2.09-2.679 2.098-2.69-1.384.06-1.353.055-1.51.067z"/></g></g></svg>