<svg xmlns="http://www.w3.org/2000/svg" width="24" height="15" viewBox="0 0 24 15"><g><g><g><path fill="#313131" d="M22.977 13.085c-.046.081-.103.096-.132.1l-3.337-.002c-.013 0-.027 0-.04.002-.657.054-1.216-.177-1.756-.728a28.607 28.607 0 0 1-.897-.972c-.141-.158-.287-.322-.434-.483a3.636 3.636 0 0 0-.696-.615c-.433-.281-.792-.273-1.017-.216-.222.056-.538.216-.78.659-.315.573-.384 1.19-.412 1.775-.017.357-.077.451-.102.475-.033.032-.144.087-.512.104-1.771.083-3.257-.234-4.544-.97-1.12-.642-2.1-1.562-3.085-2.897C3.76 7.321 2.464 5.01 1.031 1.821a.811.811 0 0 1-.073-.226.817.817 0 0 1 .234-.03c1.042-.02 2.112-.021 3.27-.002.158.002.339.05.476.384.645 1.589 1.391 2.97 2.28 4.226.236.333.53.748.961 1.043.396.27.716.258.916.2.2-.06.477-.222.664-.664.12-.285.193-.606.229-1.011.103-1.203.084-2.203-.058-3.146-.1-.676-.449-1.164-.998-1.414a.747.747 0 0 1 .36-.072h3.744c.211.048.253.103.267.122.06.08.095.272.117.42l.003 4.177c-.009.4.186 1.289.848 1.532l.017.006c.603.197 1.001-.229 1.216-.457l.038-.041c1.007-1.07 1.686-2.32 2.216-3.4.276-.558.51-1.135.708-1.632.1-.25.19-.29.404-.286h.01l3.65.004c.086 0 .174 0 .243.012.174.03.246.066.27.081a.764.764 0 0 1-.051.274c-.265.834-.777 1.543-1.319 2.293l-.065.09c-.281.39-.579.781-.866 1.16a56.24 56.24 0 0 0-.999 1.346c-.694.969-.633 1.612.233 2.458.205.2.415.398.618.59.576.546 1.12 1.061 1.605 1.643.254.306.542.674.752 1.08.11.212.083.404.026.504zm-.043-2.196c-.522-.626-1.112-1.184-1.683-1.725-.2-.19-.407-.386-.607-.581-.269-.262-.4-.448-.414-.586-.014-.135.079-.335.29-.631.318-.446.656-.892.984-1.323.29-.384.591-.78.88-1.18l.064-.09c.562-.778 1.144-1.582 1.455-2.563.089-.282.181-.698-.041-1.063-.223-.366-.637-.474-.928-.524a2.34 2.34 0 0 0-.403-.026L18.884.594c-.63-.01-1.068.288-1.306.889-.191.48-.417 1.035-.678 1.562-.499 1.018-1.134 2.19-2.054 3.166l-.04.044c-.063.067-.165.176-.218.201-.1-.063-.215-.42-.21-.609v-.013l-.002-4.216a.48.48 0 0 0-.005-.064C14.29.953 14.13.35 13.178.162a.476.476 0 0 0-.092-.01H9.292c-.714 0-1.091.328-1.394.682-.088.104-.32.378-.202.713.12.34.478.408.595.43.414.078.627.312.694.759.13.868.146 1.797.05 2.922a2.382 2.382 0 0 1-.157.722.554.554 0 0 1-.056.105.555.555 0 0 1-.103-.058c-.29-.2-.51-.508-.721-.807-.846-1.195-1.557-2.514-2.175-4.034-.255-.622-.733-.97-1.346-.98a90.844 90.844 0 0 0-3.303.002C.677.617.329.773.138 1.073c-.19.3-.184.684.02 1.14 1.463 3.252 2.79 5.619 4.306 7.672 1.067 1.446 2.14 2.45 3.38 3.158 1.3.745 2.769 1.11 4.472 1.11.193 0 .39-.005.59-.014 1.05-.048 1.478-.466 1.525-1.49.026-.54.086-.979.295-1.36.058-.106.124-.178.176-.19.055-.014.153.02.262.09.2.13.37.305.511.459.143.156.288.318.427.474.298.333.605.677.927 1.005.729.743 1.569 1.084 2.498 1.012l3.338.002.031-.001c.385-.026.718-.239.914-.585.235-.417.232-.945-.01-1.413-.252-.487-.579-.906-.866-1.253z"/></g></g></g></svg>